<svg id="my-svg" width="100%" xmlns="http://www.w3.org/2000/svg" xmlns:xlink="http://www.w3.org/1999/xlink" class="flowchart" style="max-width: 2829.86px; background-color: white;" viewBox="4 4 2829.859375 822.75" role="graphics-document document" aria-roledescription="flowchart-elk"><style>#my-svg{font-family:"trebuchet ms",verdana,arial,sans-serif;font-size:16px;fill:#333;}@keyframes edge-animation-frame{from{stroke-dashoffset:0;}}@keyframes dash{to{stroke-dashoffset:0;}}#my-svg .edge-animation-slow{stroke-dasharray:9,5!important;stroke-dashoffset:900;animation:dash 50s linear infinite;stroke-linecap:round;}#my-svg .edge-animation-fast{stroke-dasharray:9,5!important;stroke-dashoffset:900;animation:dash 20s linear infinite;stroke-linecap:round;}#my-svg .error-icon{fill:#552222;}#my-svg .error-text{fill:#552222;stroke:#552222;}#my-svg .edge-thickness-normal{stroke-width:1px;}#my-svg .edge-thickness-thick{stroke-width:3.5px;}#my-svg .edge-pattern-solid{stroke-dasharray:0;}#my-svg .edge-thickness-invisible{stroke-width:0;fill:none;}#my-svg .edge-pattern-dashed{stroke-dasharray:3;}#my-svg .edge-pattern-dotted{stroke-dasharray:2;}#my-svg .marker{fill:#333333;stroke:#333333;}#my-svg .marker.cross{stroke:#333333;}#my-svg svg{font-family:"trebuchet ms",verdana,arial,sans-serif;font-size:16px;}#my-svg p{margin:0;}#my-svg .label{font-family:"trebuchet ms",verdana,arial,sans-serif;color:#333;}#my-svg .cluster-label text{fill:#333;}#my-svg .cluster-label span{color:#333;}#my-svg .cluster-label span p{background-color:transparent;}#my-svg .label text,#my-svg span{fill:#333;color:#333;}#my-svg .node rect,#my-svg .node circle,#my-svg .node ellipse,#my-svg .node polygon,#my-svg .node path{fill:#ECECFF;stroke:#9370DB;stroke-width:1px;}#my-svg .rough-node .label text,#my-svg .node .label text,#my-svg .image-shape .label,#my-svg .icon-shape .label{text-anchor:middle;}#my-svg .node .katex path{fill:#000;stroke:#000;stroke-width:1px;}#my-svg .rough-node .label,#my-svg .node .label,#my-svg .image-shape .label,#my-svg .icon-shape .label{text-align:center;}#my-svg .node.clickable{cursor:pointer;}#my-svg .root .anchor path{fill:#333333!important;stroke-width:0;stroke:#333333;}#my-svg .arrowheadPath{fill:#333333;}#my-svg .edgePath .path{stroke:#333333;stroke-width:1px;}#my-svg .flowchart-link{stroke:#333333;fill:none;}#my-svg .edgeLabel{background-color:rgba(232,232,232, 0.8);text-align:center;}#my-svg .edgeLabel p{background-color:rgba(232,232,232, 0.8);}#my-svg .edgeLabel rect{opacity:0.5;background-color:rgba(232,232,232, 0.8);fill:rgba(232,232,232, 0.8);}#my-svg .labelBkg{background-color:rgba(232, 232, 232, 0.5);}#my-svg .cluster rect{fill:#ffffde;stroke:#aaaa33;stroke-width:1px;}#my-svg .cluster text{fill:#333;}#my-svg .cluster span{color:#333;}#my-svg div.mermaidTooltip{position:absolute;text-align:center;max-width:200px;padding:2px;font-family:"trebuchet ms",verdana,arial,sans-serif;font-size:12px;background:hsl(80, 100%, 96.2745098039%);border:1px solid #aaaa33;border-radius:2px;pointer-events:none;z-index:100;}#my-svg .flowchartTitleText{text-anchor:middle;font-size:18px;fill:#333;}#my-svg rect.text{fill:none;stroke-width:0;}#my-svg .icon-shape,#my-svg .image-shape{background-color:rgba(232,232,232, 0.8);text-align:center;}#my-svg .icon-shape p,#my-svg .image-shape p{background-color:rgba(232,232,232, 0.8);padding:2px;}#my-svg .icon-shape .label rect,#my-svg .image-shape .label rect{opacity:0.5;background-color:rgba(232,232,232, 0.8);fill:rgba(232,232,232, 0.8);}#my-svg .label-icon{display:inline-block;height:1em;overflow:visible;vertical-align:-0.125em;}#my-svg .node .label-icon path{fill:currentColor;stroke:revert;stroke-width:revert;}#my-svg .node .neo-node{stroke:#9370DB;}#my-svg [data-look="neo"].node rect,#my-svg [data-look="neo"].cluster rect,#my-svg [data-look="neo"].node polygon{stroke:#9370DB;filter:drop-shadow(1px 2px 2px rgba(185, 185, 185, 1));}#my-svg [data-look="neo"].node path{stroke:#9370DB;stroke-width:1px;}#my-svg [data-look="neo"].node .outer-path{filter:drop-shadow(1px 2px 2px rgba(185, 185, 185, 1));}#my-svg [data-look="neo"].node .neo-line path{stroke:#9370DB;filter:none;}#my-svg [data-look="neo"].node circle{stroke:#9370DB;filter:drop-shadow(1px 2px 2px rgba(185, 185, 185, 1));}#my-svg [data-look="neo"].node circle .state-start{fill:#000000;}#my-svg [data-look="neo"].icon-shape .icon{fill:#9370DB;filter:drop-shadow(1px 2px 2px rgba(185, 185, 185, 1));}#my-svg [data-look="neo"].icon-shape .icon-neo path{stroke:#9370DB;filter:drop-shadow(1px 2px 2px rgba(185, 185, 185, 1));}#my-svg :root{--mermaid-font-family:"trebuchet ms",verdana,arial,sans-serif;}#my-svg .person&gt;*{fill:#08427b!important;stroke:#052e56!important;color:#fff!important;}#my-svg .person span{fill:#08427b!important;stroke:#052e56!important;color:#fff!important;}#my-svg .person tspan{fill:#fff!important;}#my-svg .external&gt;*{fill:#999!important;stroke:#666!important;color:#fff!important;}#my-svg .external span{fill:#999!important;stroke:#666!important;color:#fff!important;}#my-svg .external tspan{fill:#fff!important;}#my-svg .container&gt;*{fill:#1168bd!important;stroke:#0b4884!important;color:#fff!important;}#my-svg .container span{fill:#1168bd!important;stroke:#0b4884!important;color:#fff!important;}#my-svg .container tspan{fill:#fff!important;}#my-svg .component&gt;*{fill:#85bbf0!important;stroke:#5d9bd1!important;color:#000!important;}#my-svg .component span{fill:#85bbf0!important;stroke:#5d9bd1!important;color:#000!important;}#my-svg .component tspan{fill:#000!important;}</style><g><marker id="my-svg_flowchart-elk-pointEnd" class="marker flowchart-elk" viewBox="0 0 10 10" refX="5" refY="5" markerUnits="userSpaceOnUse" markerWidth="8" markerHeight="8" orient="auto"><path d="M 0 0 L 10 5 L 0 10 z" class="arrowMarkerPath" style="stroke-width: 1; stroke-dasharray: 1, 0;"/></marker><marker id="my-svg_flowchart-elk-pointStart" class="marker flowchart-elk" viewBox="0 0 10 10" refX="4.5" refY="5" markerUnits="userSpaceOnUse" markerWidth="8" markerHeight="8" orient="auto"><path d="M 0 5 L 10 10 L 10 0 z" class="arrowMarkerPath" style="stroke-width: 1; stroke-dasharray: 1, 0;"/></marker><marker id="my-svg_flowchart-elk-pointEnd-margin" class="marker flowchart-elk" viewBox="0 0 11.5 14" refX="11.5" refY="7" markerUnits="userSpaceOnUse" markerWidth="10.5" markerHeight="14" orient="auto"><path d="M 0 0 L 11.5 7 L 0 14 z" class="arrowMarkerPath" style="stroke-width: 0; stroke-dasharray: 1, 0;"/></marker><marker id="my-svg_flowchart-elk-pointStart-margin" class="marker flowchart-elk" viewBox="0 0 11.5 14" refX="1" refY="7" markerUnits="userSpaceOnUse" markerWidth="11.5" markerHeight="14" orient="auto"><polygon points="0,7 11.5,14 11.5,0" class="arrowMarkerPath" style="stroke-width: 0; stroke-dasharray: 1, 0;"/></marker><marker id="my-svg_flowchart-elk-circleEnd" class="marker flowchart-elk" viewBox="0 0 10 10" refX="11" refY="5" markerUnits="userSpaceOnUse" markerWidth="11" markerHeight="11" orient="auto"><circle cx="5" cy="5" r="5" class="arrowMarkerPath" style="stroke-width: 1; stroke-dasharray: 1, 0;"/></marker><marker id="my-svg_flowchart-elk-circleStart" class="marker flowchart-elk" viewBox="0 0 10 10" refX="-1" refY="5" markerUnits="userSpaceOnUse" markerWidth="11" markerHeight="11" orient="auto"><circle cx="5" cy="5" r="5" class="arrowMarkerPath" style="stroke-width: 1; stroke-dasharray: 1, 0;"/></marker><marker id="my-svg_flowchart-elk-circleEnd-margin" class="marker flowchart-elk" viewBox="0 0 10 10" refY="5" refX="12.25" markerUnits="userSpaceOnUse" markerWidth="14" markerHeight="14" orient="auto"><circle cx="5" cy="5" r="5" class="arrowMarkerPath" style="stroke-width: 0; stroke-dasharray: 1, 0;"/></marker><marker id="my-svg_flowchart-elk-circleStart-margin" class="marker flowchart-elk" viewBox="0 0 10 10" refX="-2" refY="5" markerUnits="userSpaceOnUse" markerWidth="14" markerHeight="14" orient="auto"><circle cx="5" cy="5" r="5" class="arrowMarkerPath" style="stroke-width: 0; stroke-dasharray: 1, 0;"/></marker><marker id="my-svg_flowchart-elk-crossEnd" class="marker cross flowchart-elk" viewBox="0 0 11 11" refX="12" refY="5.2" markerUnits="userSpaceOnUse" markerWidth="11" markerHeight="11" orient="auto"><path d="M 1,1 l 9,9 M 10,1 l -9,9" class="arrowMarkerPath" style="stroke-width: 2; stroke-dasharray: 1, 0;"/></marker><marker id="my-svg_flowchart-elk-crossStart" class="marker cross flowchart-elk" viewBox="0 0 11 11" refX="-1" refY="5.2" markerUnits="userSpaceOnUse" markerWidth="11" markerHeight="11" orient="auto"><path d="M 1,1 l 9,9 M 10,1 l -9,9" class="arrowMarkerPath" style="stroke-width: 2; stroke-dasharray: 1, 0;"/></marker><marker id="my-svg_flowchart-elk-crossEnd-margin" class="marker cross flowchart-elk" viewBox="0 0 15 15" refX="17.7" refY="7.5" markerUnits="userSpaceOnUse" markerWidth="12" markerHeight="12" orient="auto"><path d="M 1,1 L 14,14 M 1,14 L 14,1" class="arrowMarkerPath" style="stroke-width: 2.5;"/></marker><marker id="my-svg_flowchart-elk-crossStart-margin" class="marker cross flowchart-elk" viewBox="0 0 15 15" refX="-3.5" refY="7.5" markerUnits="userSpaceOnUse" markerWidth="12" markerHeight="12" orient="auto"><path d="M 1,1 L 14,14 M 1,14 L 14,1" class="arrowMarkerPath" style="stroke-width: 2.5; stroke-dasharray: 1, 0;"/></marker></g><defs><filter id="my-svg-drop-shadow" height="130%" width="130%"><feDropShadow dx="4" dy="4" stdDeviation="0" flood-opacity="0.06" flood-color="#000000"/></filter></defs><defs><filter id="my-svg-drop-shadow-small" height="150%" width="150%"><feDropShadow dx="2" dy="2" stdDeviation="0" flood-opacity="0.06" flood-color="#000000"/></filter></defs><g class="subgraphs"><g class="subgraph"><g class="cluster container clickable" id="[object Object]" data-look="classic"><rect style="fill:#1168bd !important;stroke:#0b4884 !important" x="440.796875" y="12" width="1837.03125" height="743.75"/><g class="cluster-label" transform="translate(1266.3203125, 12)"><foreignObject width="185.984375" height="24"><div xmlns="http://www.w3.org/1999/xhtml" style="display: table-cell; white-space: nowrap; line-height: 1.5;"><span class="nodeLabel" style="color:#fff !important"><p>S2-N3 · engram CLI binary</p></span></div></foreignObject></g></g></g></g><g class="nodes"><a xlink:href="#s2-n3-m1-main-go" data-look="classic" transform="translate(552.390625, 704.75)"><g class="node default component clickable" id="my-svg-flowchart-s2-n3-m1-4" title="main.go"><rect class="basic label-container" style="fill:#85bbf0 !important;stroke:#5d9bd1 !important" x="-99.59375" y="-39" width="199.1875" height="78"/><g class="label" style="color:#000 !important" transform="translate(-69.59375, -24)"><rect/><foreignObject width="139.1875" height="48"><div style="color: rgb(0, 0, 0) !important; display: table-cell; white-space: nowrap; line-height: 1.5; max-width: 200px; text-align: center;" xmlns="http://www.w3.org/1999/xhtml"><span style="color:#000 !important" class="nodeLabel"><p>S2-N3-M1 · main.go<br />process entry</p></span></div></foreignObject></g></g></a><a xlink:href="#s2-n3-m2-cli" data-look="classic" transform="translate(1026.5703125, 704.75)"><g class="node default component clickable" id="my-svg-flowchart-s2-n3-m2-5" title="cli"><rect class="basic label-container" style="fill:#85bbf0 !important;stroke:#5d9bd1 !important" x="-114.5859375" y="-39" width="229.171875" height="78"/><g class="label" style="color:#000 !important" transform="translate(-84.5859375, -24)"><rect/><foreignObject width="169.171875" height="48"><div style="color: rgb(0, 0, 0) !important; display: table-cell; white-space: nowrap; line-height: 1.5; max-width: 200px; text-align: center;" xmlns="http://www.w3.org/1999/xhtml"><span style="color:#000 !important" class="nodeLabel"><p>S2-N3-M2 · cli<br />dispatch + I/O adapters</p></span></div></foreignObject></g></g></a><a xlink:href="#s2-n3-m3-recall" data-look="classic" transform="translate(1603.525, 445)"><g class="node default component clickable" id="my-svg-flowchart-s2-n3-m3-6" title="recall"><rect class="basic label-container" style="fill:#85bbf0 !important;stroke:#5d9bd1 !important" x="-107.28125" y="-39" width="214.5625" height="78"/><g class="label" style="color:#000 !important" transform="translate(-77.28125, -24)"><rect/><foreignObject width="154.5625" height="48"><div style="color: rgb(0, 0, 0) !important; display: table-cell; white-space: nowrap; line-height: 1.5; max-width: 200px; text-align: center;" xmlns="http://www.w3.org/1999/xhtml"><span style="color:#000 !important" class="nodeLabel"><p>S2-N3-M3 · recall<br />orchestrator + phases</p></span></div></foreignObject></g></g></a><a xlink:href="#s2-n3-m4-context" data-look="classic" transform="translate(2104.015625, 404.4)"><g class="node default component clickable" id="my-svg-flowchart-s2-n3-m4-7" title="context"><rect class="basic label-container" style="fill:#85bbf0 !important;stroke:#5d9bd1 !important" x="-98.1875" y="-39" width="196.375" height="78"/><g class="label" style="color:#000 !important" transform="translate(-68.1875, -24)"><rect/><foreignObject width="136.375" height="48"><div style="color: rgb(0, 0, 0) !important; display: table-cell; white-space: nowrap; line-height: 1.5; max-width: 200px; text-align: center;" xmlns="http://www.w3.org/1999/xhtml"><span style="color:#000 !important" class="nodeLabel"><p>S2-N3-M4 · context<br />transcript reader</p></span></div></foreignObject></g></g></a><a xlink:href="#s2-n3-m5-memory" data-look="classic" transform="translate(2130.84375, 549.5)"><g class="node default component clickable" id="my-svg-flowchart-s2-n3-m5-8" title="memory"><rect class="basic label-container" style="fill:#85bbf0 !important;stroke:#5d9bd1 !important" x="-115.046875" y="-39" width="230.09375" height="78"/><g class="label" style="color:#000 !important" transform="translate(-85.046875, -24)"><rect/><foreignObject width="170.09375" height="48"><div style="color: rgb(0, 0, 0) !important; display: table-cell; white-space: nowrap; line-height: 1.5; max-width: 200px; text-align: center;" xmlns="http://www.w3.org/1999/xhtml"><span style="color:#000 !important" class="nodeLabel"><p>S2-N3-M5 · memory<br />feedback / fact records</p></span></div></foreignObject></g></g></a><a xlink:href="#s2-n3-m6-externalsources" data-look="classic" transform="translate(2135.828125, 135)"><g class="node default component clickable" id="my-svg-flowchart-s2-n3-m6-9" title="externalsources"><rect class="basic label-container" style="fill:#85bbf0 !important;stroke:#5d9bd1 !important" x="-130" y="-51" width="260" height="102"/><g class="label" style="color:#000 !important" transform="translate(-100, -36)"><rect/><foreignObject width="200" height="72"><div style="color: rgb(0, 0, 0) !important; display: table; white-space: break-spaces; line-height: 1.5; max-width: 200px; text-align: center; width: 200px;" xmlns="http://www.w3.org/1999/xhtml"><span style="color:#000 !important" class="nodeLabel"><p>S2-N3-M6 · externalsources<br />CLAUDE.md / rules / auto-memory / skills</p></span></div></foreignObject></g></g></a><a xlink:href="#s2-n3-m7-anthropic" data-look="classic" transform="translate(2127.518229166667, 296.4)"><g class="node default component clickable" id="my-svg-flowchart-s2-n3-m7-10" title="anthropic"><rect class="basic label-container" style="fill:#85bbf0 !important;stroke:#5d9bd1 !important" x="-105.0703125" y="-39" width="210.140625" height="78"/><g class="label" style="color:#000 !important" transform="translate(-75.0703125, -24)"><rect/><foreignObject width="150.140625" height="48"><div style="color: rgb(0, 0, 0) !important; display: table-cell; white-space: nowrap; line-height: 1.5; max-width: 200px; text-align: center;" xmlns="http://www.w3.org/1999/xhtml"><span style="color:#000 !important" class="nodeLabel"><p>S2-N3-M7 · anthropic<br />Messages API client</p></span></div></foreignObject></g></g></a><a xlink:href="#s2-n3-m8-tokenresolver" data-look="classic" transform="translate(1595.9921875, 309)"><g class="node default component clickable" id="my-svg-flowchart-s2-n3-m8-11" title="tokenresolver"><rect class="basic label-container" style="fill:#85bbf0 !important;stroke:#5d9bd1 !important" x="-119.8359375" y="-39" width="239.671875" height="78"/><g class="label" style="color:#000 !important" transform="translate(-89.8359375, -24)"><rect/><foreignObject width="179.671875" height="48"><div style="color: rgb(0, 0, 0) !important; display: table-cell; white-space: nowrap; line-height: 1.5; max-width: 200px; text-align: center;" xmlns="http://www.w3.org/1999/xhtml"><span style="color:#000 !important" class="nodeLabel"><p>S2-N3-M8 · tokenresolver<br />env + macOS Keychain</p></span></div></foreignObject></g></g></a><a xlink:href="#s2-n3-m9-tomlwriter" data-look="classic" transform="translate(1595.9921875, 680)"><g class="node default component clickable" id="my-svg-flowchart-s2-n3-m9-12" title="tomlwriter"><rect class="basic label-container" style="fill:#85bbf0 !important;stroke:#5d9bd1 !important" x="-109.3046875" y="-39" width="218.609375" height="78"/><g class="label" style="color:#000 !important" transform="translate(-79.3046875, -24)"><rect/><foreignObject width="158.609375" height="48"><div style="color: rgb(0, 0, 0) !important; display: table-cell; white-space: nowrap; line-height: 1.5; max-width: 200px; text-align: center;" xmlns="http://www.w3.org/1999/xhtml"><span style="color:#000 !important" class="nodeLabel"><p>S2-N3-M9 · tomlwriter<br />TOML serialization</p></span></div></foreignObject></g></g></a><a xlink:href="#s3-claude-code" data-look="classic" transform="translate(87.6484375, 717.75)"><g class="node default external clickable" id="my-svg-flowchart-s3-0" title="Claude Code"><rect class="basic label-container" style="fill:#999 !important;stroke:#666 !important" rx="5" ry="5" x="-75.6484375" y="-39" width="151.296875" height="78"/><g class="label" style="color:#fff !important" transform="translate(-60.6484375, -24)"><rect/><foreignObject width="121.296875" height="48"><div style="color: rgb(255, 255, 255) !important; display: table-cell; white-space: nowrap; line-height: 1.5; max-width: 200px; text-align: center;" xmlns="http://www.w3.org/1999/xhtml"><span style="color:#fff !important" class="nodeLabel"><p>S3 · Claude Code<br />agent harness</p></span></div></foreignObject></g></g></a><a xlink:href="#s4-claude-code-memory-surfaces" data-look="classic" transform="translate(2670.328125, 135)"><g class="node default external clickable" id="my-svg-flowchart-s4-1" title="Claude Code memory surfaces"><rect class="basic label-container" style="fill:#999 !important;stroke:#666 !important" rx="5" ry="5" x="-115" y="-39" width="230" height="78"/><g class="label" style="color:#fff !important" transform="translate(-100, -24)"><rect/><foreignObject width="200" height="48"><div style="color: rgb(255, 255, 255) !important; display: table; white-space: break-spaces; line-height: 1.5; max-width: 200px; text-align: center; width: 200px;" xmlns="http://www.w3.org/1999/xhtml"><span style="color:#fff !important" class="nodeLabel"><p>S4 · Claude Code memory surfaces</p></span></div></foreignObject></g></g></a><a xlink:href="#s5-anthropic-api" data-look="classic" transform="translate(2633.796875, 296.4)"><g class="node default external clickable" id="my-svg-flowchart-s5-2" title="Anthropic API"><rect class="basic label-container" style="fill:#999 !important;stroke:#666 !important" rx="5" ry="5" x="-78.46875" y="-39" width="156.9375" height="78"/><g class="label" style="color:#fff !important" transform="translate(-63.46875, -24)"><rect/><foreignObject width="126.9375" height="48"><div style="color: rgb(255, 255, 255) !important; display: table-cell; white-space: nowrap; line-height: 1.5; max-width: 200px; text-align: center;" xmlns="http://www.w3.org/1999/xhtml"><span style="color:#fff !important" class="nodeLabel"><p>S5 · Anthropic API<br />Haiku</p></span></div></foreignObject></g></g></a><a xlink:href="#s6-engram-memory-store" data-look="classic" transform="translate(2690.59375, 562.5)"><g class="node default external clickable" id="my-svg-flowchart-s6-3" title="Engram memory store"><rect class="basic label-container" style="fill:#999 !important;stroke:#666 !important" rx="5" ry="5" x="-135.265625" y="-39" width="270.53125" height="78"/><g class="label" style="color:#fff !important" transform="translate(-120.265625, -24)"><rect/><foreignObject width="240.53125" height="48"><div style="color: rgb(255, 255, 255) !important; display: table; white-space: break-spaces; line-height: 1.5; max-width: 200px; text-align: center; width: 200px;" xmlns="http://www.w3.org/1999/xhtml"><span style="color:#fff !important" class="nodeLabel"><p>S6 · Engram memory store<br />~/.local/share/engram/memory/</p></span></div></foreignObject></g></g></a></g><g class="edges edgePaths"><path d="M163.297,704.75L208.297,704.75C253.297,704.75,343.297,704.75,390.88,704.75C438.464,704.75,443.63,704.75,446.214,704.75L448.797,704.75" id="my-svg-L_s3_s2-n3-m1_0_0" class="edge-thickness-normal edge-pattern-solid edge-thickness-normal edge-pattern-solid flowchart-link" style=";" data-edge="true" data-et="edge" data-id="L_s3_s2-n3-m1_0_0" data-points="W3sieCI6MTYzLjI5Njg3NSwieSI6NzA0Ljc1fSx7IngiOjQzMy4yOTY4NzUsInkiOjcwNC43NX0seyJ4Ijo0NTIuNzk2ODc1LCJ5Ijo3MDQuNzV9XQ==" data-look="classic" marker-end="url(#my-svg_flowchart-elk-pointEnd)"/><path d="M651.984,704.75L907.984,704.75" id="my-svg-L_s2-n3-m1_s2-n3-m2_0_0" class="edge-thickness-normal edge-pattern-solid edge-thickness-normal edge-pattern-solid flowchart-link" style=";" data-edge="true" data-et="edge" data-id="L_s2-n3-m1_s2-n3-m2_0_0" data-points="W3sieCI6NjUxLjk4NDM3NSwieSI6NzA0Ljc1fSx7IngiOjkxMS45ODQzNzUsInkiOjcwNC43NX1d" data-look="classic" marker-end="url(#my-svg_flowchart-elk-pointEnd)"/><path d="M1141.156,704.75L1150.323,704.75C1159.49,704.75,1177.823,704.75,1187.461,704.388C1197.099,704.026,1198.042,703.302,1198.875,702.469C1199.709,701.636,1200.432,700.693,1200.794,658.596C1201.156,616.5,1201.156,533.25,1201.518,491.154C1201.88,449.057,1202.604,448.114,1203.437,447.281C1204.271,446.448,1205.213,445.724,1253.366,445.362C1301.519,445,1396.881,445,1444.563,445L1492.244,445" id="my-svg-L_s2-n3-m2_s2-n3-m3_0_0" class="edge-thickness-normal edge-pattern-solid edge-thickness-normal edge-pattern-solid flowchart-link" style=";" data-edge="true" data-et="edge" data-id="L_s2-n3-m2_s2-n3-m3_0_0" data-points="W3sieCI6MTE0MS4xNTYyNSwieSI6NzA0Ljc1fSx7IngiOjEyMDEuMTU2MjUsInkiOjcwNC43NX0seyJ4IjoxMjAxLjE1NjI1LCJ5Ijo0NDV9LHsieCI6MTQ5Ni4yNDM3NSwieSI6NDQ1fV0=" data-look="classic" marker-end="url(#my-svg_flowchart-elk-pointEnd)"/><path d="M1141.156,714.5L1152.823,714.5C1164.49,714.5,1187.823,714.5,1199.961,714.138C1212.099,713.776,1213.042,713.052,1213.875,712.219C1214.709,711.386,1215.432,710.443,1215.794,686.305C1216.156,662.167,1216.156,614.833,1216.518,590.695C1216.88,566.557,1217.604,565.614,1218.437,564.781C1219.271,563.948,1220.213,563.224,1352.458,562.862C1484.703,562.5,1748.25,562.5,1880.023,562.5L2011.797,562.5" id="my-svg-L_s2-n3-m2_s2-n3-m5_0_0" class="edge-thickness-normal edge-pattern-solid edge-thickness-normal edge-pattern-solid flowchart-link" style=";" data-edge="true" data-et="edge" data-id="L_s2-n3-m2_s2-n3-m5_0_0" data-points="W3sieCI6MTE0MS4xNTYyNSwieSI6NzE0LjV9LHsieCI6MTIxNi4xNTYyNSwieSI6NzE0LjV9LHsieCI6MTIxNi4xNTYyNSwieSI6NTYyLjV9LHsieCI6MjAxNS43OTY4NzUsInkiOjU2Mi41fV0=" data-look="classic" marker-end="url(#my-svg_flowchart-elk-pointEnd)"/><path d="M1141.156,675.5L1142.823,675.5C1144.49,675.5,1147.823,675.5,1149.961,675.138C1152.099,674.776,1153.042,674.052,1153.875,673.219C1154.709,672.386,1155.432,671.443,1155.794,576.638C1156.156,481.833,1156.156,293.167,1156.518,198.362C1156.88,103.557,1157.604,102.614,1158.437,101.781C1159.271,100.948,1160.213,100.224,1298.13,99.862C1436.047,99.5,1710.938,99.5,1848.854,99.862C1986.771,100.224,1987.714,100.948,1988.547,101.781C1989.38,102.614,1990.104,103.557,1990.466,105.445C1990.828,107.333,1990.828,110.167,1991.19,112.055C1991.552,113.943,1992.276,114.886,1993.109,115.719C1993.943,116.552,1994.885,117.276,1996.357,117.638C1997.828,118,1999.828,118,2000.828,118L2001.828,118" id="my-svg-L_s2-n3-m2_s2-n3-m6_0_0" class="edge-thickness-normal edge-pattern-solid edge-thickness-normal edge-pattern-solid flowchart-link" style=";" data-edge="true" data-et="edge" data-id="L_s2-n3-m2_s2-n3-m6_0_0" data-points="W3sieCI6MTE0MS4xNTYyNSwieSI6Njc1LjV9LHsieCI6MTE1Ni4xNTYyNSwieSI6Njc1LjV9LHsieCI6MTE1Ni4xNTYyNSwieSI6OTkuNX0seyJ4IjoxOTkwLjgyODEyNSwieSI6OTkuNX0seyJ4IjoxOTkwLjgyODEyNSwieSI6MTE4fSx7IngiOjIwMDUuODI4MTI1LCJ5IjoxMTh9XQ==" data-look="classic" marker-end="url(#my-svg_flowchart-elk-pointEnd)"/><path d="M1141.156,685.25L1145.323,685.25C1149.49,685.25,1157.823,685.25,1162.461,684.888C1167.099,684.526,1168.042,683.802,1168.875,682.969C1169.709,682.136,1170.432,681.193,1170.794,602.096C1171.156,523,1171.156,365.75,1171.518,286.654C1171.88,207.557,1172.604,206.614,1173.437,205.781C1174.271,204.948,1175.213,204.224,1310.63,203.862C1446.047,203.5,1715.938,203.5,1851.354,203.862C1986.771,204.224,1987.714,204.948,1988.547,205.781C1989.38,206.614,1990.104,207.557,1990.466,219.679C1990.828,231.8,1990.828,255.1,1991.19,267.221C1991.552,279.343,1992.276,280.286,1993.109,281.119C1993.943,281.952,1994.885,282.676,1999.127,283.038C2003.368,283.4,2010.908,283.4,2014.678,283.4L2018.448,283.4" id="my-svg-L_s2-n3-m2_s2-n3-m7_0_0" class="edge-thickness-normal edge-pattern-solid edge-thickness-normal edge-pattern-solid flowchart-link" style=";" data-edge="true" data-et="edge" data-id="L_s2-n3-m2_s2-n3-m7_0_0" data-points="W3sieCI6MTE0MS4xNTYyNSwieSI6Njg1LjI1fSx7IngiOjExNzEuMTU2MjUsInkiOjY4NS4yNX0seyJ4IjoxMTcxLjE1NjI1LCJ5IjoyMDMuNX0seyJ4IjoxOTkwLjgyODEyNSwieSI6MjAzLjV9LHsieCI6MTk5MC44MjgxMjUsInkiOjI4My40fSx7IngiOjIwMjIuNDQ3OTE2NjY2NjY2NywieSI6MjgzLjR9XQ==" data-look="classic" marker-end="url(#my-svg_flowchart-elk-pointEnd)"/><path d="M1141.156,695L1147.823,695C1154.49,695,1167.823,695,1174.961,694.638C1182.099,694.276,1183.042,693.552,1183.875,692.719C1184.709,691.886,1185.432,690.943,1185.794,627.805C1186.156,564.667,1186.156,439.333,1186.518,376.195C1186.88,313.057,1187.604,312.114,1188.437,311.281C1189.271,310.448,1190.213,309.724,1237.518,309.362C1284.823,309,1378.49,309,1425.323,309L1472.156,309" id="my-svg-L_s2-n3-m2_s2-n3-m8_0_0" class="edge-thickness-normal edge-pattern-solid edge-thickness-normal edge-pattern-solid flowchart-link" style=";" data-edge="true" data-et="edge" data-id="L_s2-n3-m2_s2-n3-m8_0_0" data-points="W3sieCI6MTE0MS4xNTYyNSwieSI6Njk1fSx7IngiOjExODYuMTU2MjUsInkiOjY5NX0seyJ4IjoxMTg2LjE1NjI1LCJ5IjozMDl9LHsieCI6MTQ3Ni4xNTYyNSwieSI6MzA5fV0=" data-look="classic" marker-end="url(#my-svg_flowchart-elk-pointEnd)"/><path d="M1710.806,452.8L1718.31,452.8C1725.814,452.8,1740.821,452.8,1748.796,452.438C1756.771,452.076,1757.714,451.352,1758.547,450.519C1759.38,449.686,1760.104,448.743,1760.466,441.871C1760.828,435,1760.828,422.2,1761.19,415.329C1761.552,408.457,1762.276,407.514,1763.109,406.681C1763.943,405.848,1764.885,405.124,1804.69,404.762C1844.495,404.4,1923.161,404.4,1962.495,404.4L2001.828,404.4" id="my-svg-L_s2-n3-m3_s2-n3-m4_0_0" class="edge-thickness-normal edge-pattern-solid edge-thickness-normal edge-pattern-solid flowchart-link" style=";" data-edge="true" data-et="edge" data-id="L_s2-n3-m3_s2-n3-m4_0_0" data-points="W3sieCI6MTcxMC44MDYyNSwieSI6NDUyLjh9LHsieCI6MTc2MC44MjgxMjUsInkiOjQ1Mi44fSx7IngiOjE3NjAuODI4MTI1LCJ5Ijo0MDQuNH0seyJ4IjoyMDA1LjgyODEyNSwieSI6NDA0LjR9XQ==" data-look="classic" marker-end="url(#my-svg_flowchart-elk-pointEnd)"/><path d="M1710.806,468.4L1756.643,468.4C1802.48,468.4,1894.154,468.4,1940.463,468.762C1986.771,469.124,1987.714,469.848,1988.547,470.681C1989.38,471.514,1990.104,472.457,1990.466,482.612C1990.828,492.767,1990.828,512.133,1991.19,522.288C1991.552,532.443,1992.276,533.386,1993.109,534.219C1993.943,535.052,1994.885,535.776,1998.018,536.138C2001.151,536.5,2006.474,536.5,2009.135,536.5L2011.797,536.5" id="my-svg-L_s2-n3-m3_s2-n3-m5_0_0" class="edge-thickness-normal edge-pattern-solid edge-thickness-normal edge-pattern-solid flowchart-link" style=";" data-edge="true" data-et="edge" data-id="L_s2-n3-m3_s2-n3-m5_0_0" data-points="W3sieCI6MTcxMC44MDYyNSwieSI6NDY4LjR9LHsieCI6MTk5MC44MjgxMjUsInkiOjQ2OC40fSx7IngiOjE5OTAuODI4MTI1LCJ5Ijo1MzYuNX0seyJ4IjoyMDE1Ljc5Njg3NSwieSI6NTM2LjV9XQ==" data-look="classic" marker-end="url(#my-svg_flowchart-elk-pointEnd)"/><path d="M1710.806,437.2L1715.81,437.2C1720.814,437.2,1730.821,437.2,1736.296,436.838C1741.771,436.476,1742.714,435.752,1743.547,434.919C1744.38,434.086,1745.104,433.143,1745.466,413.038C1745.828,392.933,1745.828,353.667,1746.19,333.562C1746.552,313.457,1747.276,312.514,1748.109,311.681C1748.943,310.848,1749.885,310.124,1794.96,309.762C1840.035,309.4,1929.241,309.4,1973.845,309.4L2018.448,309.4" id="my-svg-L_s2-n3-m3_s2-n3-m7_0_0" class="edge-thickness-normal edge-pattern-solid edge-thickness-normal edge-pattern-solid flowchart-link" style=";" data-edge="true" data-et="edge" data-id="L_s2-n3-m3_s2-n3-m7_0_0" data-points="W3sieCI6MTcxMC44MDYyNSwieSI6NDM3LjJ9LHsieCI6MTc0NS44MjgxMjUsInkiOjQzNy4yfSx7IngiOjE3NDUuODI4MTI1LCJ5IjozMDkuNH0seyJ4IjoyMDIyLjQ0NzkxNjY2NjY2NjcsInkiOjMwOS40fV0=" data-look="classic" marker-end="url(#my-svg_flowchart-elk-pointEnd)"/><path d="M1710.806,421.6L1713.31,421.6C1715.814,421.6,1720.821,421.6,1723.796,421.238C1726.771,420.876,1727.714,420.152,1728.547,419.319C1729.38,418.486,1730.104,417.543,1730.466,373.805C1730.828,330.067,1730.828,243.533,1731.19,199.795C1731.552,156.057,1732.276,155.114,1733.109,154.281C1733.943,153.448,1734.885,152.724,1779.69,152.362C1824.495,152,1913.161,152,1957.495,152L2001.828,152" id="my-svg-L_s2-n3-m3_s2-n3-m6_0_0" class="edge-thickness-normal edge-pattern-solid edge-thickness-normal edge-pattern-solid flowchart-link" style=";" data-edge="true" data-et="edge" data-id="L_s2-n3-m3_s2-n3-m6_0_0" data-points="W3sieCI6MTcxMC44MDYyNSwieSI6NDIxLjZ9LHsieCI6MTczMC44MjgxMjUsInkiOjQyMS42fSx7IngiOjE3MzAuODI4MTI1LCJ5IjoxNTJ9LHsieCI6MjAwNS44MjgxMjUsInkiOjE1Mn1d" data-look="classic" marker-end="url(#my-svg_flowchart-elk-pointEnd)"/><path d="M1141.156,724.25L1155.323,724.25C1169.49,724.25,1197.823,724.25,1212.461,723.888C1227.099,723.526,1228.042,722.802,1228.875,721.969C1229.709,721.136,1230.432,720.193,1230.794,714.013C1231.156,707.833,1231.156,696.417,1231.518,690.237C1231.88,684.057,1232.604,683.114,1233.437,682.281C1234.271,681.448,1235.213,680.724,1276.773,680.362C1318.333,680,1400.51,680,1441.599,680L1482.688,680" id="my-svg-L_s2-n3-m2_s2-n3-m9_0_0" class="edge-thickness-normal edge-pattern-solid edge-thickness-normal edge-pattern-solid flowchart-link" style=";" data-edge="true" data-et="edge" data-id="L_s2-n3-m2_s2-n3-m9_0_0" data-points="W3sieCI6MTE0MS4xNTYyNSwieSI6NzI0LjI1fSx7IngiOjEyMzEuMTU2MjUsInkiOjcyNC4yNX0seyJ4IjoxMjMxLjE1NjI1LCJ5Ijo2ODB9LHsieCI6MTQ4Ni42ODc1LCJ5Ijo2ODB9XQ==" data-look="classic" marker-end="url(#my-svg_flowchart-elk-pointEnd)"/><path d="M1141.156,734L1331.852,734C1522.547,734,1903.938,734,2096.716,734C2289.495,734,2293.661,734,2296.216,734.362C2298.771,734.724,2299.714,735.448,2300.547,736.281C2301.38,737.114,2302.104,738.057,2302.466,745.07C2302.828,752.083,2302.828,765.167,2302.466,772.18C2302.104,779.193,2301.38,780.136,2300.547,780.969C2299.714,781.802,2298.771,782.526,2141.88,782.888C1984.99,783.25,1672.151,783.25,1320.146,783.25C968.141,783.25,576.969,783.25,380.911,782.888C184.854,782.526,183.911,781.802,183.078,780.969C182.245,780.136,181.521,779.193,181.159,771.638C180.797,764.083,180.797,749.917,180.435,742.362C180.073,734.807,179.349,733.864,178.516,733.031C177.682,732.198,176.74,731.474,174.852,731.112C172.964,730.75,170.13,730.75,168.714,730.75L167.297,730.75" id="my-svg-L_s2-n3-m2_s3_0_0" class="edge-thickness-normal edge-pattern-solid edge-thickness-normal edge-pattern-solid flowchart-link" style=";" data-edge="true" data-et="edge" data-id="L_s2-n3-m2_s3_0_0" data-points="W3sieCI6MTE0MS4xNTYyNSwieSI6NzM0fSx7IngiOjIyODUuMzI4MTI1LCJ5Ijo3MzR9LHsieCI6MjMwMi44MjgxMjUsInkiOjczNH0seyJ4IjoyMzAyLjgyODEyNSwieSI6NzgzLjI1fSx7IngiOjEzNTkuMzEyNSwieSI6NzgzLjI1fSx7IngiOjE4MC43OTY4NzUsInkiOjc4My4yNX0seyJ4IjoxODAuNzk2ODc1LCJ5Ijo3MzAuNzV9LHsieCI6MTYzLjI5Njg3NSwieSI6NzMwLjc1fV0=" data-look="classic" marker-end="url(#my-svg_flowchart-elk-pointEnd)"/><path d="M2232.589,296.4L2241.378,296.4C2250.168,296.4,2267.748,296.4,2320.872,296.4C2373.995,296.4,2462.661,296.4,2506.995,296.4L2551.328,296.4" id="my-svg-L_s2-n3-m7_s5_0_0" class="edge-thickness-normal edge-pattern-solid edge-thickness-normal edge-pattern-solid flowchart-link" style=";" data-edge="true" data-et="edge" data-id="L_s2-n3-m7_s5_0_0" data-points="W3sieCI6MjIzMi41ODg1NDE2NjY2NjcsInkiOjI5Ni40fSx7IngiOjIyODUuMzI4MTI1LCJ5IjoyOTYuNH0seyJ4IjoyNTU1LjMyODEyNSwieSI6Mjk2LjR9XQ==" data-look="classic" marker-end="url(#my-svg_flowchart-elk-pointEnd)"/><path d="M2265.828,135L2269.078,135C2272.328,135,2278.828,135,2326.411,135C2373.995,135,2462.661,135,2506.995,135L2551.328,135" id="my-svg-L_s2-n3-m6_s4_0_0" class="edge-thickness-normal edge-pattern-solid edge-thickness-normal edge-pattern-solid flowchart-link" style=";" data-edge="true" data-et="edge" data-id="L_s2-n3-m6_s4_0_0" data-points="W3sieCI6MjI2NS44MjgxMjUsInkiOjEzNX0seyJ4IjoyMjg1LjMyODEyNSwieSI6MTM1fSx7IngiOjI1NTUuMzI4MTI1LCJ5IjoxMzV9XQ==" data-look="classic" marker-end="url(#my-svg_flowchart-elk-pointEnd)"/><path d="M2245.891,549.5L2252.464,549.5C2259.036,549.5,2272.182,549.5,2323.089,549.5C2373.995,549.5,2462.661,549.5,2506.995,549.5L2551.328,549.5" id="my-svg-L_s2-n3-m5_s6_0_0" class="edge-thickness-normal edge-pattern-solid edge-thickness-normal edge-pattern-solid flowchart-link" style=";" data-edge="true" data-et="edge" data-id="L_s2-n3-m5_s6_0_0" data-points="W3sieCI6MjI0NS44OTA2MjUsInkiOjU0OS41fSx7IngiOjIyODUuMzI4MTI1LCJ5Ijo1NDkuNX0seyJ4IjoyNTU1LjMyODEyNSwieSI6NTQ5LjV9XQ==" data-look="classic" marker-end="url(#my-svg_flowchart-elk-pointEnd)"/><path d="M1705.297,680L1801.969,680C1898.641,680,2091.984,680,2229.906,680C2367.828,680,2450.328,680,2492.05,679.638C2533.771,679.276,2534.714,678.552,2535.547,677.719C2536.38,676.886,2537.104,675.943,2537.466,659.721C2537.828,643.5,2537.828,612,2538.19,595.779C2538.552,579.557,2539.276,578.614,2540.109,577.781C2540.943,576.948,2541.885,576.224,2543.773,575.862C2545.661,575.5,2548.495,575.5,2549.911,575.5L2551.328,575.5" id="my-svg-L_s2-n3-m9_s6_0_0" class="edge-thickness-normal edge-pattern-solid edge-thickness-normal edge-pattern-solid flowchart-link" style=";" data-edge="true" data-et="edge" data-id="L_s2-n3-m9_s6_0_0" data-points="W3sieCI6MTcwNS4yOTY4NzUsInkiOjY4MH0seyJ4IjoyMjg1LjMyODEyNSwieSI6NjgwfSx7IngiOjI1MzcuODI4MTI1LCJ5Ijo2ODB9LHsieCI6MjUzNy44MjgxMjUsInkiOjU3NS41fSx7IngiOjI1NTUuMzI4MTI1LCJ5Ijo1NzUuNX1d" data-look="classic" marker-end="url(#my-svg_flowchart-elk-pointEnd)"/></g><g class="edgeLabels"><g class="edgeLabel" transform="translate(298.296875, 704.25)"><g class="label" data-id="L_s3_s2-n3-m1_0_0" transform="translate(-100, -24)"><foreignObject width="200" height="48"><div xmlns="http://www.w3.org/1999/xhtml" class="labelBkg" style="display: table; white-space: break-spaces; line-height: 1.5; max-width: 200px; text-align: center; width: 200px;"><span class="edgeLabel"><p>R1: execs the binary as a subprocess (Bash tool)</p></span></div></foreignObject></g></g><g class="edgeLabel" transform="translate(781.984375, 704.25)"><g class="label" data-id="L_s2-n3-m1_s2-n3-m2_0_0" transform="translate(-100, -24)"><foreignObject width="200" height="48"><div xmlns="http://www.w3.org/1999/xhtml" class="labelBkg" style="display: table; white-space: break-spaces; line-height: 1.5; max-width: 200px; text-align: center; width: 200px;"><span class="edgeLabel"><p>R2: builds CLI targets and runs targ.Main</p></span></div></foreignObject></g></g><g class="edgeLabel" transform="translate(1346.15625, 444.5)"><g class="label" data-id="L_s2-n3-m2_s2-n3-m3_0_0" transform="translate(-100, -84)"><foreignObject width="200" height="168"><div xmlns="http://www.w3.org/1999/xhtml" class="labelBkg" style="display: table; white-space: break-spaces; line-height: 1.5; max-width: 200px; text-align: center; width: 200px;"><span class="edgeLabel"><p>R3: delegates the recall pipeline (Orchestrator + phases) to the dedicated recall package — the one subcommand currently extracted from cli (see Drift Notes)</p></span></div></foreignObject></g></g><g class="edgeLabel" transform="translate(1595.9921875, 562)"><g class="label" data-id="L_s2-n3-m2_s2-n3-m5_0_0" transform="translate(-100, -48)"><foreignObject width="200" height="96"><div xmlns="http://www.w3.org/1999/xhtml" class="labelBkg" style="display: table; white-space: break-spaces; line-height: 1.5; max-width: 200px; text-align: center; width: 200px;"><span class="edgeLabel"><p>R4: reads / writes feedback + fact TOML through memory types and helpers</p></span></div></foreignObject></g></g><g class="edgeLabel" transform="translate(1595.9921875, 99)"><g class="label" data-id="L_s2-n3-m2_s2-n3-m6_0_0" transform="translate(-100, -48)"><foreignObject width="200" height="96"><div xmlns="http://www.w3.org/1999/xhtml" class="labelBkg" style="display: table; white-space: break-spaces; line-height: 1.5; max-width: 200px; text-align: center; width: 200px;"><span class="edgeLabel"><p>R5: discovers external source paths and shares the cache via discoverExternalSources</p></span></div></foreignObject></g></g><g class="edgeLabel" transform="translate(1595.9921875, 203)"><g class="label" data-id="L_s2-n3-m2_s2-n3-m7_0_0" transform="translate(-100, -36)"><foreignObject width="200" height="72"><div xmlns="http://www.w3.org/1999/xhtml" class="labelBkg" style="display: table; white-space: break-spaces; line-height: 1.5; max-width: 200px; text-align: center; width: 200px;"><span class="edgeLabel"><p>R6: builds the Anthropic caller used by recall.NewSummarizer</p></span></div></foreignObject></g></g><g class="edgeLabel" transform="translate(1346.15625, 308.5)"><g class="label" data-id="L_s2-n3-m2_s2-n3-m8_0_0" transform="translate(-100, -36)"><foreignObject width="200" height="72"><div xmlns="http://www.w3.org/1999/xhtml" class="labelBkg" style="display: table; white-space: break-spaces; line-height: 1.5; max-width: 200px; text-align: center; width: 200px;"><span class="edgeLabel"><p>R7: resolves API token (env or Keychain) before any LLM call</p></span></div></foreignObject></g></g><g class="edgeLabel" transform="translate(1875.828125, 403.9)"><g class="label" data-id="L_s2-n3-m3_s2-n3-m4_0_0" transform="translate(-100, -24)"><foreignObject width="200" height="48"><div xmlns="http://www.w3.org/1999/xhtml" class="labelBkg" style="display: table; white-space: break-spaces; line-height: 1.5; max-width: 200px; text-align: center; width: 200px;"><span class="edgeLabel"><p>R8: reads + strips session transcripts within budget</p></span></div></foreignObject></g></g><g class="edgeLabel" transform="translate(1875.828125, 467.9)"><g class="label" data-id="L_s2-n3-m3_s2-n3-m5_0_0" transform="translate(-100, -24)"><foreignObject width="200" height="48"><div xmlns="http://www.w3.org/1999/xhtml" class="labelBkg" style="display: table; white-space: break-spaces; line-height: 1.5; max-width: 200px; text-align: center; width: 200px;"><span class="edgeLabel"><p>R9: lists memories during recall ranking</p></span></div></foreignObject></g></g><g class="edgeLabel" transform="translate(1875.828125, 308.9)"><g class="label" data-id="L_s2-n3-m3_s2-n3-m7_0_0" transform="translate(-100, -36)"><foreignObject width="200" height="72"><div xmlns="http://www.w3.org/1999/xhtml" class="labelBkg" style="display: table; white-space: break-spaces; line-height: 1.5; max-width: 200px; text-align: center; width: 200px;"><span class="edgeLabel"><p>R10: ranks candidates and extracts snippets via Haiku (through DI Summarizer)</p></span></div></foreignObject></g></g><g class="edgeLabel" transform="translate(1875.828125, 151.5)"><g class="label" data-id="L_s2-n3-m3_s2-n3-m6_0_0" transform="translate(-100, -36)"><foreignObject width="200" height="72"><div xmlns="http://www.w3.org/1999/xhtml" class="labelBkg" style="display: table; white-space: break-spaces; line-height: 1.5; max-width: 200px; text-align: center; width: 200px;"><span class="edgeLabel"><p>R11: reads CLAUDE.md / rules / auto-memory / skill frontmatter (cached)</p></span></div></foreignObject></g></g><g class="edgeLabel" transform="translate(1346.15625, 679.5)"><g class="label" data-id="L_s2-n3-m2_s2-n3-m9_0_0" transform="translate(-100, -24)"><foreignObject width="200" height="48"><div xmlns="http://www.w3.org/1999/xhtml" class="labelBkg" style="display: table; white-space: break-spaces; line-height: 1.5; max-width: 200px; text-align: center; width: 200px;"><span class="edgeLabel"><p>R12: writes new TOML on learn / remember / update</p></span></div></foreignObject></g></g><g class="edgeLabel" transform="translate(298.296875, 782.75)"><g class="label" data-id="L_s2-n3-m2_s3_0_0" transform="translate(-100, -36)"><foreignObject width="200" height="72"><div xmlns="http://www.w3.org/1999/xhtml" class="labelBkg" style="display: table; white-space: break-spaces; line-height: 1.5; max-width: 200px; text-align: center; width: 200px;"><span class="edgeLabel"><p>R13: prints briefings, recall results, and list / show output to stdout</p></span></div></foreignObject></g></g><g class="edgeLabel" transform="translate(2420.328125, 295.9)"><g class="label" data-id="L_s2-n3-m7_s5_0_0" transform="translate(-100, -24)"><foreignObject width="200" height="48"><div xmlns="http://www.w3.org/1999/xhtml" class="labelBkg" style="display: table; white-space: break-spaces; line-height: 1.5; max-width: 200px; text-align: center; width: 200px;"><span class="edgeLabel"><p>R14: HTTPS POST /v1/messages (Haiku)</p></span></div></foreignObject></g></g><g class="edgeLabel" transform="translate(2420.328125, 134.5)"><g class="label" data-id="L_s2-n3-m6_s4_0_0" transform="translate(-100, -48)"><foreignObject width="200" height="96"><div xmlns="http://www.w3.org/1999/xhtml" class="labelBkg" style="display: table; white-space: break-spaces; line-height: 1.5; max-width: 200px; text-align: center; width: 200px;"><span class="edgeLabel"><p>R15: reads project + user CLAUDE.md, .claude/rules, auto-memory, skill frontmatter</p></span></div></foreignObject></g></g><g class="edgeLabel" transform="translate(2420.328125, 549)"><g class="label" data-id="L_s2-n3-m5_s6_0_0" transform="translate(-100, -36)"><foreignObject width="200" height="72"><div xmlns="http://www.w3.org/1999/xhtml" class="labelBkg" style="display: table; white-space: break-spaces; line-height: 1.5; max-width: 200px; text-align: center; width: 200px;"><span class="edgeLabel"><p>R16: reads existing feedback + fact TOML during recall / list / show</p></span></div></foreignObject></g></g><g class="edgeLabel" transform="translate(2420.328125, 679.5)"><g class="label" data-id="L_s2-n3-m9_s6_0_0" transform="translate(-100, -36)"><foreignObject width="200" height="72"><div xmlns="http://www.w3.org/1999/xhtml" class="labelBkg" style="display: table; white-space: break-spaces; line-height: 1.5; max-width: 200px; text-align: center; width: 200px;"><span class="edgeLabel"><p>R17: writes new feedback + fact TOML on learn / remember / update</p></span></div></foreignObject></g></g></g></svg>