<svg id="my-svg" width="100%" xmlns="http://www.w3.org/2000/svg" xmlns:xlink="http://www.w3.org/1999/xlink" class="flowchart" style="max-width: 1560.36px; background-color: white;" viewBox="4 4 1560.359375 1061" role="graphics-document document" aria-roledescription="flowchart-elk"><style>#my-svg{font-family:"trebuchet ms",verdana,arial,sans-serif;font-size:16px;fill:#333;}@keyframes edge-animation-frame{from{stroke-dashoffset:0;}}@keyframes dash{to{stroke-dashoffset:0;}}#my-svg .edge-animation-slow{stroke-dasharray:9,5!important;stroke-dashoffset:900;animation:dash 50s linear infinite;stroke-linecap:round;}#my-svg .edge-animation-fast{stroke-dasharray:9,5!important;stroke-dashoffset:900;animation:dash 20s linear infinite;stroke-linecap:round;}#my-svg .error-icon{fill:#552222;}#my-svg .error-text{fill:#552222;stroke:#552222;}#my-svg .edge-thickness-normal{stroke-width:1px;}#my-svg .edge-thickness-thick{stroke-width:3.5px;}#my-svg .edge-pattern-solid{stroke-dasharray:0;}#my-svg .edge-thickness-invisible{stroke-width:0;fill:none;}#my-svg .edge-pattern-dashed{stroke-dasharray:3;}#my-svg .edge-pattern-dotted{stroke-dasharray:2;}#my-svg .marker{fill:#333333;stroke:#333333;}#my-svg .marker.cross{stroke:#333333;}#my-svg svg{font-family:"trebuchet ms",verdana,arial,sans-serif;font-size:16px;}#my-svg p{margin:0;}#my-svg .label{font-family:"trebuchet ms",verdana,arial,sans-serif;color:#333;}#my-svg .cluster-label text{fill:#333;}#my-svg .cluster-label span{color:#333;}#my-svg .cluster-label span p{background-color:transparent;}#my-svg .label text,#my-svg span{fill:#333;color:#333;}#my-svg .node rect,#my-svg .node circle,#my-svg .node ellipse,#my-svg .node polygon,#my-svg .node path{fill:#ECECFF;stroke:#9370DB;stroke-width:1px;}#my-svg .rough-node .label text,#my-svg .node .label text,#my-svg .image-shape .label,#my-svg .icon-shape .label{text-anchor:middle;}#my-svg .node .katex path{fill:#000;stroke:#000;stroke-width:1px;}#my-svg .rough-node .label,#my-svg .node .label,#my-svg .image-shape .label,#my-svg .icon-shape .label{text-align:center;}#my-svg .node.clickable{cursor:pointer;}#my-svg .root .anchor path{fill:#333333!important;stroke-width:0;stroke:#333333;}#my-svg .arrowheadPath{fill:#333333;}#my-svg .edgePath .path{stroke:#333333;stroke-width:1px;}#my-svg .flowchart-link{stroke:#333333;fill:none;}#my-svg .edgeLabel{background-color:rgba(232,232,232, 0.8);text-align:center;}#my-svg .edgeLabel p{background-color:rgba(232,232,232, 0.8);}#my-svg .edgeLabel rect{opacity:0.5;background-color:rgba(232,232,232, 0.8);fill:rgba(232,232,232, 0.8);}#my-svg .labelBkg{background-color:rgba(232, 232, 232, 0.5);}#my-svg .cluster rect{fill:#ffffde;stroke:#aaaa33;stroke-width:1px;}#my-svg .cluster text{fill:#333;}#my-svg .cluster span{color:#333;}#my-svg div.mermaidTooltip{position:absolute;text-align:center;max-width:200px;padding:2px;font-family:"trebuchet ms",verdana,arial,sans-serif;font-size:12px;background:hsl(80, 100%, 96.2745098039%);border:1px solid #aaaa33;border-radius:2px;pointer-events:none;z-index:100;}#my-svg .flowchartTitleText{text-anchor:middle;font-size:18px;fill:#333;}#my-svg rect.text{fill:none;stroke-width:0;}#my-svg .icon-shape,#my-svg .image-shape{background-color:rgba(232,232,232, 0.8);text-align:center;}#my-svg .icon-shape p,#my-svg .image-shape p{background-color:rgba(232,232,232, 0.8);padding:2px;}#my-svg .icon-shape .label rect,#my-svg .image-shape .label rect{opacity:0.5;background-color:rgba(232,232,232, 0.8);fill:rgba(232,232,232, 0.8);}#my-svg .label-icon{display:inline-block;height:1em;overflow:visible;vertical-align:-0.125em;}#my-svg .node .label-icon path{fill:currentColor;stroke:revert;stroke-width:revert;}#my-svg .node .neo-node{stroke:#9370DB;}#my-svg [data-look="neo"].node rect,#my-svg [data-look="neo"].cluster rect,#my-svg [data-look="neo"].node polygon{stroke:#9370DB;filter:drop-shadow(1px 2px 2px rgba(185, 185, 185, 1));}#my-svg [data-look="neo"].node path{stroke:#9370DB;stroke-width:1px;}#my-svg [data-look="neo"].node .outer-path{filter:drop-shadow(1px 2px 2px rgba(185, 185, 185, 1));}#my-svg [data-look="neo"].node .neo-line path{stroke:#9370DB;filter:none;}#my-svg [data-look="neo"].node circle{stroke:#9370DB;filter:drop-shadow(1px 2px 2px rgba(185, 185, 185, 1));}#my-svg [data-look="neo"].node circle .state-start{fill:#000000;}#my-svg [data-look="neo"].icon-shape .icon{fill:#9370DB;filter:drop-shadow(1px 2px 2px rgba(185, 185, 185, 1));}#my-svg [data-look="neo"].icon-shape .icon-neo path{stroke:#9370DB;filter:drop-shadow(1px 2px 2px rgba(185, 185, 185, 1));}#my-svg :root{--mermaid-font-family:"trebuchet ms",verdana,arial,sans-serif;}#my-svg .person&gt;*{fill:#08427b!important;stroke:#052e56!important;color:#fff!important;}#my-svg .person span{fill:#08427b!important;stroke:#052e56!important;color:#fff!important;}#my-svg .person tspan{fill:#fff!important;}#my-svg .external&gt;*{fill:#999!important;stroke:#666!important;color:#fff!important;}#my-svg .external span{fill:#999!important;stroke:#666!important;color:#fff!important;}#my-svg .external tspan{fill:#fff!important;}#my-svg .container&gt;*{fill:#1168bd!important;stroke:#0b4884!important;color:#fff!important;}#my-svg .container span{fill:#1168bd!important;stroke:#0b4884!important;color:#fff!important;}#my-svg .container tspan{fill:#fff!important;}#my-svg .component&gt;*{fill:#85bbf0!important;stroke:#5d9bd1!important;color:#000!important;}#my-svg .component span{fill:#85bbf0!important;stroke:#5d9bd1!important;color:#000!important;}#my-svg .component tspan{fill:#000!important;}#my-svg .focus&gt;*{fill:#facc15!important;stroke:#a16207!important;color:#000!important;}#my-svg .focus span{fill:#facc15!important;stroke:#a16207!important;color:#000!important;}#my-svg .focus tspan{fill:#000!important;}</style><g><marker id="my-svg_flowchart-elk-pointEnd" class="marker flowchart-elk" viewBox="0 0 10 10" refX="5" refY="5" markerUnits="userSpaceOnUse" markerWidth="8" markerHeight="8" orient="auto"><path d="M 0 0 L 10 5 L 0 10 z" class="arrowMarkerPath" style="stroke-width: 1; stroke-dasharray: 1, 0;"/></marker><marker id="my-svg_flowchart-elk-pointStart" class="marker flowchart-elk" viewBox="0 0 10 10" refX="4.5" refY="5" markerUnits="userSpaceOnUse" markerWidth="8" markerHeight="8" orient="auto"><path d="M 0 5 L 10 10 L 10 0 z" class="arrowMarkerPath" style="stroke-width: 1; stroke-dasharray: 1, 0;"/></marker><marker id="my-svg_flowchart-elk-pointEnd-margin" class="marker flowchart-elk" viewBox="0 0 11.5 14" refX="11.5" refY="7" markerUnits="userSpaceOnUse" markerWidth="10.5" markerHeight="14" orient="auto"><path d="M 0 0 L 11.5 7 L 0 14 z" class="arrowMarkerPath" style="stroke-width: 0; stroke-dasharray: 1, 0;"/></marker><marker id="my-svg_flowchart-elk-pointStart-margin" class="marker flowchart-elk" viewBox="0 0 11.5 14" refX="1" refY="7" markerUnits="userSpaceOnUse" markerWidth="11.5" markerHeight="14" orient="auto"><polygon points="0,7 11.5,14 11.5,0" class="arrowMarkerPath" style="stroke-width: 0; stroke-dasharray: 1, 0;"/></marker><marker id="my-svg_flowchart-elk-circleEnd" class="marker flowchart-elk" viewBox="0 0 10 10" refX="11" refY="5" markerUnits="userSpaceOnUse" markerWidth="11" markerHeight="11" orient="auto"><circle cx="5" cy="5" r="5" class="arrowMarkerPath" style="stroke-width: 1; stroke-dasharray: 1, 0;"/></marker><marker id="my-svg_flowchart-elk-circleStart" class="marker flowchart-elk" viewBox="0 0 10 10" refX="-1" refY="5" markerUnits="userSpaceOnUse" markerWidth="11" markerHeight="11" orient="auto"><circle cx="5" cy="5" r="5" class="arrowMarkerPath" style="stroke-width: 1; stroke-dasharray: 1, 0;"/></marker><marker id="my-svg_flowchart-elk-circleEnd-margin" class="marker flowchart-elk" viewBox="0 0 10 10" refY="5" refX="12.25" markerUnits="userSpaceOnUse" markerWidth="14" markerHeight="14" orient="auto"><circle cx="5" cy="5" r="5" class="arrowMarkerPath" style="stroke-width: 0; stroke-dasharray: 1, 0;"/></marker><marker id="my-svg_flowchart-elk-circleStart-margin" class="marker flowchart-elk" viewBox="0 0 10 10" refX="-2" refY="5" markerUnits="userSpaceOnUse" markerWidth="14" markerHeight="14" orient="auto"><circle cx="5" cy="5" r="5" class="arrowMarkerPath" style="stroke-width: 0; stroke-dasharray: 1, 0;"/></marker><marker id="my-svg_flowchart-elk-crossEnd" class="marker cross flowchart-elk" viewBox="0 0 11 11" refX="12" refY="5.2" markerUnits="userSpaceOnUse" markerWidth="11" markerHeight="11" orient="auto"><path d="M 1,1 l 9,9 M 10,1 l -9,9" class="arrowMarkerPath" style="stroke-width: 2; stroke-dasharray: 1, 0;"/></marker><marker id="my-svg_flowchart-elk-crossStart" class="marker cross flowchart-elk" viewBox="0 0 11 11" refX="-1" refY="5.2" markerUnits="userSpaceOnUse" markerWidth="11" markerHeight="11" orient="auto"><path d="M 1,1 l 9,9 M 10,1 l -9,9" class="arrowMarkerPath" style="stroke-width: 2; stroke-dasharray: 1, 0;"/></marker><marker id="my-svg_flowchart-elk-crossEnd-margin" class="marker cross flowchart-elk" viewBox="0 0 15 15" refX="17.7" refY="7.5" markerUnits="userSpaceOnUse" markerWidth="12" markerHeight="12" orient="auto"><path d="M 1,1 L 14,14 M 1,14 L 14,1" class="arrowMarkerPath" style="stroke-width: 2.5;"/></marker><marker id="my-svg_flowchart-elk-crossStart-margin" class="marker cross flowchart-elk" viewBox="0 0 15 15" refX="-3.5" refY="7.5" markerUnits="userSpaceOnUse" markerWidth="12" markerHeight="12" orient="auto"><path d="M 1,1 L 14,14 M 1,14 L 14,1" class="arrowMarkerPath" style="stroke-width: 2.5; stroke-dasharray: 1, 0;"/></marker></g><defs><filter id="my-svg-drop-shadow" height="130%" width="130%"><feDropShadow dx="4" dy="4" stdDeviation="0" flood-opacity="0.06" flood-color="#000000"/></filter></defs><defs><filter id="my-svg-drop-shadow-small" height="150%" width="150%"><feDropShadow dx="2" dy="2" stdDeviation="0" flood-opacity="0.06" flood-color="#000000"/></filter></defs><g class="subgraphs"/><g class="nodes"><g class="node default external" id="my-svg-flowchart-e3-0" data-look="classic" transform="translate(1433.5234375, 486)"><rect class="basic label-container" style="fill:#999 !important;stroke:#666 !important" x="-91.0859375" y="-27" width="182.171875" height="54"/><g class="label" style="color:#fff !important" transform="translate(-61.0859375, -12)"><rect/><foreignObject width="122.171875" height="24"><div style="color: rgb(255, 255, 255) !important; display: table-cell; white-space: nowrap; line-height: 1.5; max-width: 200px; text-align: center;" xmlns="http://www.w3.org/1999/xhtml"><span style="color:#fff !important" class="nodeLabel"><p>E3 · Claude Code</p></span></div></foreignObject></g></g><g class="node default component" id="my-svg-flowchart-e20-1" data-look="classic" transform="translate(131.6640625, 48.5)"><rect class="basic label-container" style="fill:#85bbf0 !important;stroke:#5d9bd1 !important" x="-79.1796875" y="-27" width="158.359375" height="54"/><g class="label" style="color:#000 !important" transform="translate(-49.1796875, -12)"><rect/><foreignObject width="98.359375" height="24"><div style="color: rgb(0, 0, 0) !important; display: table-cell; white-space: nowrap; line-height: 1.5; max-width: 200px; text-align: center;" xmlns="http://www.w3.org/1999/xhtml"><span style="color:#000 !important" class="nodeLabel"><p>E20 · main.go</p></span></div></foreignObject></g></g><g class="node default focus" id="my-svg-flowchart-e21-2" data-look="classic" transform="translate(745.2890625, 505.5)"><rect class="basic label-container" style="fill:#facc15 !important;stroke:#a16207 !important" x="-59.0390625" y="-39" width="118.078125" height="78"/><g class="label" style="color:#000 !important" transform="translate(-29.0390625, -24)"><rect/><foreignObject width="58.078125" height="48"><div style="color: rgb(0, 0, 0) !important; display: table-cell; white-space: nowrap; line-height: 1.5; max-width: 200px; text-align: center;" xmlns="http://www.w3.org/1999/xhtml"><span style="color:#000 !important" class="nodeLabel"><p>E21 · cli<br />FOCUS</p></span></div></foreignObject></g></g><g class="node default component" id="my-svg-flowchart-e22-3" data-look="classic" transform="translate(140.0546875, 160)"><rect class="basic label-container" style="fill:#85bbf0 !important;stroke:#5d9bd1 !important" x="-70.7890625" y="-27" width="141.578125" height="54"/><g class="label" style="color:#000 !important" transform="translate(-40.7890625, -12)"><rect/><foreignObject width="81.578125" height="24"><div style="color: rgb(0, 0, 0) !important; display: table-cell; white-space: nowrap; line-height: 1.5; max-width: 200px; text-align: center;" xmlns="http://www.w3.org/1999/xhtml"><span style="color:#000 !important" class="nodeLabel"><p>E22 · recall</p></span></div></foreignObject></g></g><g class="node default component" id="my-svg-flowchart-e23-4" data-look="classic" transform="translate(133.0703125, 320)"><rect class="basic label-container" style="fill:#85bbf0 !important;stroke:#5d9bd1 !important" x="-77.7734375" y="-27" width="155.546875" height="54"/><g class="label" style="color:#000 !important" transform="translate(-47.7734375, -12)"><rect/><foreignObject width="95.546875" height="24"><div style="color: rgb(0, 0, 0) !important; display: table-cell; white-space: nowrap; line-height: 1.5; max-width: 200px; text-align: center;" xmlns="http://www.w3.org/1999/xhtml"><span style="color:#000 !important" class="nodeLabel"><p>E23 · context</p></span></div></foreignObject></g></g><g class="node default component" id="my-svg-flowchart-e24-5" data-look="classic" transform="translate(131.4140625, 409)"><rect class="basic label-container" style="fill:#85bbf0 !important;stroke:#5d9bd1 !important" x="-79.4296875" y="-27" width="158.859375" height="54"/><g class="label" style="color:#000 !important" transform="translate(-49.4296875, -12)"><rect/><foreignObject width="98.859375" height="24"><div style="color: rgb(0, 0, 0) !important; display: table-cell; white-space: nowrap; line-height: 1.5; max-width: 200px; text-align: center;" xmlns="http://www.w3.org/1999/xhtml"><span style="color:#000 !important" class="nodeLabel"><p>E24 · memory</p></span></div></foreignObject></g></g><g class="node default component" id="my-svg-flowchart-e25-6" data-look="classic" transform="translate(1449.3984375, 585.5)"><rect class="basic label-container" style="fill:#85bbf0 !important;stroke:#5d9bd1 !important" x="-106.9609375" y="-27" width="213.921875" height="54"/><g class="label" style="color:#000 !important" transform="translate(-76.9609375, -12)"><rect/><foreignObject width="153.921875" height="24"><div style="color: rgb(0, 0, 0) !important; display: table-cell; white-space: nowrap; line-height: 1.5; max-width: 200px; text-align: center;" xmlns="http://www.w3.org/1999/xhtml"><span style="color:#000 !important" class="nodeLabel"><p>E25 · externalsources</p></span></div></foreignObject></g></g><g class="node default component" id="my-svg-flowchart-e26-7" data-look="classic" transform="translate(126.1875, 602)"><rect class="basic label-container" style="fill:#85bbf0 !important;stroke:#5d9bd1 !important" x="-84.65625" y="-27" width="169.3125" height="54"/><g class="label" style="color:#000 !important" transform="translate(-54.65625, -12)"><rect/><foreignObject width="109.3125" height="24"><div style="color: rgb(0, 0, 0) !important; display: table-cell; white-space: nowrap; line-height: 1.5; max-width: 200px; text-align: center;" xmlns="http://www.w3.org/1999/xhtml"><span style="color:#000 !important" class="nodeLabel"><p>E26 · anthropic</p></span></div></foreignObject></g></g><g class="node default component" id="my-svg-flowchart-e27-8" data-look="classic" transform="translate(111.421875, 759)"><rect class="basic label-container" style="fill:#85bbf0 !important;stroke:#5d9bd1 !important" x="-99.421875" y="-27" width="198.84375" height="54"/><g class="label" style="color:#000 !important" transform="translate(-69.421875, -12)"><rect/><foreignObject width="138.84375" height="24"><div style="color: rgb(0, 0, 0) !important; display: table-cell; white-space: nowrap; line-height: 1.5; max-width: 200px; text-align: center;" xmlns="http://www.w3.org/1999/xhtml"><span style="color:#000 !important" class="nodeLabel"><p>E27 · tokenresolver</p></span></div></foreignObject></g></g><g class="node default component" id="my-svg-flowchart-e28-9" data-look="classic" transform="translate(121.953125, 916)"><rect class="basic label-container" style="fill:#85bbf0 !important;stroke:#5d9bd1 !important" x="-88.890625" y="-27" width="177.78125" height="54"/><g class="label" style="color:#000 !important" transform="translate(-58.890625, -12)"><rect/><foreignObject width="117.78125" height="24"><div style="color: rgb(0, 0, 0) !important; display: table-cell; white-space: nowrap; line-height: 1.5; max-width: 200px; text-align: center;" xmlns="http://www.w3.org/1999/xhtml"><span style="color:#000 !important" class="nodeLabel"><p>E28 · tomlwriter</p></span></div></foreignObject></g></g></g><g class="edges edgePaths"><path d="M210.844,48.5L283.411,48.5C355.979,48.5,501.115,48.5,574.154,48.862C647.193,49.224,648.136,49.948,648.969,50.781C649.802,51.614,650.526,52.557,650.888,122.029C651.25,191.5,651.25,329.5,651.612,398.971C651.974,468.443,652.698,469.386,653.531,470.219C654.364,471.052,655.307,471.776,660.112,472.138C664.917,472.5,673.583,472.5,677.917,472.5L682.25,472.5" id="my-svg-L_e20_e21_0_0" class="edge-thickness-normal edge-pattern-solid edge-thickness-normal edge-pattern-solid flowchart-link" style=";" data-edge="true" data-et="edge" data-id="L_e20_e21_0_0" data-points="W3sieCI6MjEwLjg0Mzc1LCJ5Ijo0OC41fSx7IngiOjY1MS4yNSwieSI6NDguNX0seyJ4Ijo2NTEuMjUsInkiOjQ3Mi41fSx7IngiOjY4Ni4yNSwieSI6NDcyLjV9XQ==" data-look="classic" marker-end="url(#my-svg_flowchart-elk-pointEnd)"/><path d="M686.25,478.5L678.333,478.5C670.417,478.5,654.583,478.5,646.195,478.138C637.807,477.776,636.864,477.052,636.031,476.219C635.198,475.386,634.474,474.443,634.112,421.055C633.75,367.667,633.75,261.833,633.388,208.445C633.026,155.057,632.302,154.114,631.469,153.281C630.636,152.448,629.693,151.724,560.237,151.362C490.781,151,352.813,151,283.828,151L214.844,151" id="my-svg-L_e21_e22_0_0" class="edge-thickness-normal edge-pattern-solid edge-thickness-normal edge-pattern-solid flowchart-link" style=";" data-edge="true" data-et="edge" data-id="L_e21_e22_0_0" data-points="W3sieCI6Njg2LjI1LCJ5Ijo0NzguNX0seyJ4Ijo2MzMuNzUsInkiOjQ3OC41fSx7IngiOjYzMy43NSwieSI6MTUxfSx7IngiOjIxMC44NDM3NSwieSI6MTUxfV0=" data-look="classic" marker-end="url(#my-svg_flowchart-elk-pointEnd)"/><path d="M686.25,496.5L669.583,496.5C652.917,496.5,619.583,496.5,602.445,496.138C585.307,495.776,584.364,495.052,583.531,494.219C582.698,493.386,581.974,492.443,581.612,477.555C581.25,462.667,581.25,433.833,580.888,418.945C580.526,404.057,579.802,403.114,578.969,402.281C578.136,401.448,577.193,400.724,516.487,400.362C455.781,400,335.313,400,275.078,400L214.844,400" id="my-svg-L_e21_e24_0_0" class="edge-thickness-normal edge-pattern-solid edge-thickness-normal edge-pattern-solid flowchart-link" style=";" data-edge="true" data-et="edge" data-id="L_e21_e24_0_0" data-points="W3sieCI6Njg2LjI1LCJ5Ijo0OTYuNX0seyJ4Ijo1ODEuMjUsInkiOjQ5Ni41fSx7IngiOjU4MS4yNSwieSI6NDAwfSx7IngiOjIxMC44NDM3NSwieSI6NDAwfV0=" data-look="classic" marker-end="url(#my-svg_flowchart-elk-pointEnd)"/><path d="M804.328,525L806.411,525C808.495,525,812.661,525,815.216,525.362C817.771,525.724,818.714,526.448,819.547,527.281C820.38,528.114,821.104,529.057,821.466,551.529C821.828,574,821.828,618,822.19,640.471C822.552,662.943,823.276,663.886,824.109,664.719C824.943,665.552,825.885,666.276,908.542,666.638C991.198,667,1155.568,667,1238.224,666.638C1320.88,666.276,1321.823,665.552,1322.656,664.719C1323.49,663.886,1324.214,662.943,1324.576,652.055C1324.938,641.167,1324.938,620.333,1325.299,609.445C1325.661,598.557,1326.385,597.614,1327.219,596.781C1328.052,595.948,1328.995,595.224,1330.883,594.862C1332.771,594.5,1335.604,594.5,1337.021,594.5L1338.438,594.5" id="my-svg-L_e21_e25_0_0" class="edge-thickness-normal edge-pattern-solid edge-thickness-normal edge-pattern-solid flowchart-link" style=";" data-edge="true" data-et="edge" data-id="L_e21_e25_0_0" data-points="W3sieCI6ODA0LjMyODEyNSwieSI6NTI1fSx7IngiOjgyMS44MjgxMjUsInkiOjUyNX0seyJ4Ijo4MjEuODI4MTI1LCJ5Ijo2Njd9LHsieCI6MTMyNC45Mzc1LCJ5Ijo2Njd9LHsieCI6MTMyNC45Mzc1LCJ5Ijo1OTQuNX0seyJ4IjoxMzQyLjQzNzUsInkiOjU5NC41fV0=" data-look="classic" marker-end="url(#my-svg_flowchart-elk-pointEnd)"/><path d="M686.25,508.5L669.583,508.5C652.917,508.5,619.583,508.5,602.445,508.862C585.307,509.224,584.364,509.948,583.531,510.781C582.698,511.614,581.974,512.557,581.612,525.445C581.25,538.333,581.25,563.167,580.888,576.055C580.526,588.943,579.802,589.886,578.969,590.719C578.136,591.552,577.193,592.276,516.487,592.638C455.781,593,335.313,593,275.078,593L214.844,593" id="my-svg-L_e21_e26_0_0" class="edge-thickness-normal edge-pattern-solid edge-thickness-normal edge-pattern-solid flowchart-link" style=";" data-edge="true" data-et="edge" data-id="L_e21_e26_0_0" data-points="W3sieCI6Njg2LjI1LCJ5Ijo1MDguNX0seyJ4Ijo1ODEuMjUsInkiOjUwOC41fSx7IngiOjU4MS4yNSwieSI6NTkzfSx7IngiOjIxMC44NDM3NSwieSI6NTkzfV0=" data-look="classic" marker-end="url(#my-svg_flowchart-elk-pointEnd)"/><path d="M686.25,520.5L675.417,520.5C664.583,520.5,642.917,520.5,631.612,520.862C620.307,521.224,619.364,521.948,618.531,522.781C617.698,523.614,616.974,524.557,616.612,561.612C616.25,598.667,616.25,671.833,615.888,708.888C615.526,745.943,614.802,746.886,613.969,747.719C613.136,748.552,612.193,749.276,545.654,749.638C479.115,750,346.979,750,280.911,750L214.844,750" id="my-svg-L_e21_e27_0_0" class="edge-thickness-normal edge-pattern-solid edge-thickness-normal edge-pattern-solid flowchart-link" style=";" data-edge="true" data-et="edge" data-id="L_e21_e27_0_0" data-points="W3sieCI6Njg2LjI1LCJ5Ijo1MjAuNX0seyJ4Ijo2MTYuMjUsInkiOjUyMC41fSx7IngiOjYxNi4yNSwieSI6NzUwfSx7IngiOjIxMC44NDM3NSwieSI6NzUwfV0=" data-look="classic" marker-end="url(#my-svg_flowchart-elk-pointEnd)"/><path d="M686.25,538.5L684.167,538.5C682.083,538.5,677.917,538.5,675.362,538.862C672.807,539.224,671.864,539.948,671.031,540.781C670.198,541.614,669.474,542.557,669.112,619.862C668.75,697.167,668.75,850.833,668.388,928.138C668.026,1005.443,667.302,1006.386,666.469,1007.219C665.636,1008.052,664.693,1008.776,592.487,1009.138C520.281,1009.5,376.813,1009.5,304.607,1009.138C232.401,1008.776,231.458,1008.052,230.625,1007.219C229.791,1006.386,229.068,1005.443,228.706,992.555C228.344,979.667,228.344,954.833,227.982,941.945C227.62,929.057,226.896,928.114,226.063,927.281C225.229,926.448,224.287,925.724,222.398,925.362C220.51,925,217.677,925,216.26,925L214.844,925" id="my-svg-L_e21_e28_0_0" class="edge-thickness-normal edge-pattern-solid edge-thickness-normal edge-pattern-solid flowchart-link" style=";" data-edge="true" data-et="edge" data-id="L_e21_e28_0_0" data-points="W3sieCI6Njg2LjI1LCJ5Ijo1MzguNX0seyJ4Ijo2NjguNzUsInkiOjUzOC41fSx7IngiOjY2OC43NSwieSI6MTAwOS41fSx7IngiOjIyOC4zNDM3NSwieSI6MTAwOS41fSx7IngiOjIyOC4zNDM3NSwieSI6OTI1fSx7IngiOjIxMC44NDM3NSwieSI6OTI1fV0=" data-look="classic" marker-end="url(#my-svg_flowchart-elk-pointEnd)"/><path d="M804.328,486L1338.438,486" id="my-svg-L_e21_e3_0_0" class="edge-thickness-normal edge-pattern-solid edge-thickness-normal edge-pattern-solid flowchart-link" style=";" data-edge="true" data-et="edge" data-id="L_e21_e3_0_0" data-points="W3sieCI6ODA0LjMyODEyNSwieSI6NDg2fSx7IngiOjEzNDIuNDM3NSwieSI6NDg2fV0=" data-look="classic" marker-end="url(#my-svg_flowchart-elk-pointEnd)"/><path d="M210.844,169L212.927,169C215.01,169,219.177,169,221.732,169.362C224.287,169.724,225.229,170.448,226.063,171.281C226.896,172.114,227.62,173.057,227.982,185.945C228.344,198.833,228.344,223.667,228.706,236.555C229.068,249.443,229.791,250.386,230.625,251.219C231.458,252.052,232.401,252.776,295.857,253.138C359.313,253.5,485.281,253.5,548.737,253.862C612.193,254.224,613.136,254.948,613.969,255.781C614.802,256.614,615.526,257.557,615.888,294.862C616.25,332.167,616.25,405.833,616.612,443.138C616.974,480.443,617.698,481.386,618.531,482.219C619.364,483.052,620.307,483.776,630.945,484.138C641.583,484.5,661.917,484.5,672.083,484.5L682.25,484.5" id="my-svg-L_e22_e21_0_0" class="edge-thickness-normal edge-pattern-dotted edge-thickness-normal edge-pattern-solid flowchart-link" style=";" data-edge="true" data-et="edge" data-id="L_e22_e21_0_0" data-points="W3sieCI6MjEwLjg0Mzc1LCJ5IjoxNjl9LHsieCI6MjI4LjM0Mzc1LCJ5IjoxNjl9LHsieCI6MjI4LjM0Mzc1LCJ5IjoyNTMuNX0seyJ4Ijo2MTYuMjUsInkiOjI1My41fSx7IngiOjYxNi4yNSwieSI6NDg0LjV9LHsieCI6Njg2LjI1LCJ5Ijo0ODQuNX1d" data-look="classic" marker-end="url(#my-svg_flowchart-elk-pointEnd)"/><path d="M210.844,320L274.661,320C338.479,320,466.115,320,530.404,320.362C594.693,320.724,595.636,321.448,596.469,322.281C597.302,323.114,598.026,324.057,598.388,351.279C598.75,378.5,598.75,432,599.112,459.221C599.474,486.443,600.198,487.386,601.031,488.219C601.864,489.052,602.807,489.776,616.362,490.138C629.917,490.5,656.083,490.5,669.167,490.5L682.25,490.5" id="my-svg-L_e23_e21_0_0" class="edge-thickness-normal edge-pattern-dotted edge-thickness-normal edge-pattern-solid flowchart-link" style=";" data-edge="true" data-et="edge" data-id="L_e23_e21_0_0" data-points="W3sieCI6MjEwLjg0Mzc1LCJ5IjozMjB9LHsieCI6NTk4Ljc1LCJ5IjozMjB9LHsieCI6NTk4Ljc1LCJ5Ijo0OTAuNX0seyJ4Ijo2ODYuMjUsInkiOjQ5MC41fV0=" data-look="classic" marker-end="url(#my-svg_flowchart-elk-pointEnd)"/><path d="M210.844,418L212.927,418C215.01,418,219.177,418,221.732,418.362C224.287,418.724,225.229,419.448,226.063,420.281C226.896,421.114,227.62,422.057,227.982,434.945C228.344,447.833,228.344,472.667,228.706,485.555C229.068,498.443,229.791,499.386,230.625,500.219C231.458,501.052,232.401,501.776,307.69,502.138C382.979,502.5,532.615,502.5,607.432,502.5L682.25,502.5" id="my-svg-L_e24_e21_0_0" class="edge-thickness-normal edge-pattern-dotted edge-thickness-normal edge-pattern-solid flowchart-link" style=";" data-edge="true" data-et="edge" data-id="L_e24_e21_0_0" data-points="W3sieCI6MjEwLjg0Mzc1LCJ5Ijo0MTh9LHsieCI6MjI4LjM0Mzc1LCJ5Ijo0MTh9LHsieCI6MjI4LjM0Mzc1LCJ5Ijo1MDIuNX0seyJ4Ijo2ODYuMjUsInkiOjUwMi41fV0=" data-look="classic" marker-end="url(#my-svg_flowchart-elk-pointEnd)"/><path d="M1342.438,576.5L1259.419,576.5C1176.401,576.5,1010.365,576.5,926.875,576.138C843.385,575.776,842.443,575.052,841.609,574.219C840.776,573.386,840.052,572.443,839.69,561.805C839.328,551.167,839.328,530.833,838.966,520.195C838.604,509.557,837.88,508.614,837.047,507.781C836.214,506.948,835.271,506.224,830.466,505.862C825.661,505.5,816.995,505.5,812.661,505.5L808.328,505.5" id="my-svg-L_e25_e21_0_0" class="edge-thickness-normal edge-pattern-dotted edge-thickness-normal edge-pattern-solid flowchart-link" style=";" data-edge="true" data-et="edge" data-id="L_e25_e21_0_0" data-points="W3sieCI6MTM0Mi40Mzc1LCJ5Ijo1NzYuNX0seyJ4Ijo4MzkuMzI4MTI1LCJ5Ijo1NzYuNX0seyJ4Ijo4MzkuMzI4MTI1LCJ5Ijo1MDUuNX0seyJ4Ijo4MDQuMzI4MTI1LCJ5Ijo1MDUuNX1d" data-look="classic" marker-end="url(#my-svg_flowchart-elk-pointEnd)"/><path d="M210.844,611L212.927,611C215.01,611,219.177,611,221.732,611.362C224.287,611.724,225.229,612.448,226.063,613.281C226.896,614.114,227.62,615.057,227.982,623.945C228.344,632.833,228.344,649.667,228.706,658.555C229.068,667.443,229.791,668.386,230.625,669.219C231.458,670.052,232.401,670.776,292.94,671.138C353.479,671.5,473.615,671.5,534.154,671.138C594.693,670.776,595.636,670.052,596.469,669.219C597.302,668.386,598.026,667.443,598.388,642.471C598.75,617.5,598.75,568.5,599.112,543.529C599.474,518.557,600.198,517.614,601.031,516.781C601.864,515.948,602.807,515.224,616.362,514.862C629.917,514.5,656.083,514.5,669.167,514.5L682.25,514.5" id="my-svg-L_e26_e21_0_0" class="edge-thickness-normal edge-pattern-dotted edge-thickness-normal edge-pattern-solid flowchart-link" style=";" data-edge="true" data-et="edge" data-id="L_e26_e21_0_0" data-points="W3sieCI6MjEwLjg0Mzc1LCJ5Ijo2MTF9LHsieCI6MjI4LjM0Mzc1LCJ5Ijo2MTF9LHsieCI6MjI4LjM0Mzc1LCJ5Ijo2NzEuNX0seyJ4Ijo1OTguNzUsInkiOjY3MS41fSx7IngiOjU5OC43NSwieSI6NTE0LjV9LHsieCI6Njg2LjI1LCJ5Ijo1MTQuNX1d" data-look="classic" marker-end="url(#my-svg_flowchart-elk-pointEnd)"/><path d="M210.844,768L212.927,768C215.01,768,219.177,768,221.732,768.362C224.287,768.724,225.229,769.448,226.063,770.281C226.896,771.114,227.62,772.057,227.982,780.945C228.344,789.833,228.344,806.667,228.706,815.555C229.068,824.443,229.791,825.386,230.625,826.219C231.458,827.052,232.401,827.776,298.773,828.138C365.146,828.5,496.948,828.5,563.32,828.138C629.693,827.776,630.636,827.052,631.469,826.219C632.302,825.386,633.026,824.443,633.388,775.305C633.75,726.167,633.75,628.833,634.112,579.695C634.474,530.557,635.198,529.614,636.031,528.781C636.864,527.948,637.807,527.224,645.529,526.862C653.25,526.5,667.75,526.5,675,526.5L682.25,526.5" id="my-svg-L_e27_e21_0_0" class="edge-thickness-normal edge-pattern-dotted edge-thickness-normal edge-pattern-solid flowchart-link" style=";" data-edge="true" data-et="edge" data-id="L_e27_e21_0_0" data-points="W3sieCI6MjEwLjg0Mzc1LCJ5Ijo3Njh9LHsieCI6MjI4LjM0Mzc1LCJ5Ijo3Njh9LHsieCI6MjI4LjM0Mzc1LCJ5Ijo4MjguNX0seyJ4Ijo2MzMuNzUsInkiOjgyOC41fSx7IngiOjYzMy43NSwieSI6NTI2LjV9LHsieCI6Njg2LjI1LCJ5Ijo1MjYuNX1d" data-look="classic" marker-end="url(#my-svg_flowchart-elk-pointEnd)"/><path d="M210.844,907L283.411,907C355.979,907,501.115,907,574.154,906.638C647.193,906.276,648.136,905.552,648.969,904.719C649.802,903.886,650.526,902.943,650.888,841.721C651.25,780.5,651.25,659,651.612,597.779C651.974,536.557,652.698,535.614,653.531,534.781C654.364,533.948,655.307,533.224,660.112,532.862C664.917,532.5,673.583,532.5,677.917,532.5L682.25,532.5" id="my-svg-L_e28_e21_0_0" class="edge-thickness-normal edge-pattern-dotted edge-thickness-normal edge-pattern-solid flowchart-link" style=";" data-edge="true" data-et="edge" data-id="L_e28_e21_0_0" data-points="W3sieCI6MjEwLjg0Mzc1LCJ5Ijo5MDd9LHsieCI6NjUxLjI1LCJ5Ijo5MDd9LHsieCI6NjUxLjI1LCJ5Ijo1MzIuNX0seyJ4Ijo2ODYuMjUsInkiOjUzMi41fV0=" data-look="classic" marker-end="url(#my-svg_flowchart-elk-pointEnd)"/></g><g class="edgeLabels"><g class="edgeLabel" transform="translate(404.796875, 48)"><g class="label" data-id="L_e20_e21_0_0" transform="translate(-100, -36)"><foreignObject width="200" height="72"><div xmlns="http://www.w3.org/1999/xhtml" class="labelBkg" style="display: table; white-space: break-spaces; line-height: 1.5; max-width: 200px; text-align: center; width: 200px;"><span class="edgeLabel"><p>R2: builds CLI targets and runs targ.Main<br />supported by: P1, P22</p></span></div></foreignObject></g></g><g class="edgeLabel" transform="translate(404.796875, 150.5)"><g class="label" data-id="L_e21_e22_0_0" transform="translate(-100, -48)"><foreignObject width="200" height="96"><div xmlns="http://www.w3.org/1999/xhtml" class="labelBkg" style="display: table; white-space: break-spaces; line-height: 1.5; max-width: 200px; text-align: center; width: 200px;"><span class="edgeLabel"><p>R3: delegates the recall pipeline<br />supported by: P18, P19, P20</p></span></div></foreignObject></g></g><g class="edgeLabel" transform="translate(404.796875, 399.5)"><g class="label" data-id="L_e21_e24_0_0" transform="translate(-100, -48)"><foreignObject width="200" height="96"><div xmlns="http://www.w3.org/1999/xhtml" class="labelBkg" style="display: table; white-space: break-spaces; line-height: 1.5; max-width: 200px; text-align: center; width: 200px;"><span class="edgeLabel"><p>R4: reads / writes feedback + fact TOML<br />supported by: P5, P6, P7, P8</p></span></div></foreignObject></g></g><g class="edgeLabel" transform="translate(1082.1328125, 666.5)"><g class="label" data-id="L_e21_e25_0_0" transform="translate(-100, -36)"><foreignObject width="200" height="72"><div xmlns="http://www.w3.org/1999/xhtml" class="labelBkg" style="display: table; white-space: break-spaces; line-height: 1.5; max-width: 200px; text-align: center; width: 200px;"><span class="edgeLabel"><p>R5: discoverExternalSources<br />supported by: P26, P27</p></span></div></foreignObject></g></g><g class="edgeLabel" transform="translate(404.796875, 592.5)"><g class="label" data-id="L_e21_e26_0_0" transform="translate(-100, -36)"><foreignObject width="200" height="72"><div xmlns="http://www.w3.org/1999/xhtml" class="labelBkg" style="display: table; white-space: break-spaces; line-height: 1.5; max-width: 200px; text-align: center; width: 200px;"><span class="edgeLabel"><p>R6: builds the Anthropic caller<br />supported by: P25</p></span></div></foreignObject></g></g><g class="edgeLabel" transform="translate(404.796875, 749.5)"><g class="label" data-id="L_e21_e27_0_0" transform="translate(-100, -36)"><foreignObject width="200" height="72"><div xmlns="http://www.w3.org/1999/xhtml" class="labelBkg" style="display: table; white-space: break-spaces; line-height: 1.5; max-width: 200px; text-align: center; width: 200px;"><span class="edgeLabel"><p>R7: resolves API token (env or Keychain)<br />supported by: P18</p></span></div></foreignObject></g></g><g class="edgeLabel" transform="translate(404.796875, 1009)"><g class="label" data-id="L_e21_e28_0_0" transform="translate(-100, -48)"><foreignObject width="200" height="96"><div xmlns="http://www.w3.org/1999/xhtml" class="labelBkg" style="display: table; white-space: break-spaces; line-height: 1.5; max-width: 200px; text-align: center; width: 200px;"><span class="edgeLabel"><p>R12: writes new TOML on learn / remember / update<br />supported by: P10, P11, P12, P17</p></span></div></foreignObject></g></g><g class="edgeLabel" transform="translate(1082.1328125, 485.5)"><g class="label" data-id="L_e21_e3_0_0" transform="translate(-100, -36)"><foreignObject width="200" height="72"><div xmlns="http://www.w3.org/1999/xhtml" class="labelBkg" style="display: table; white-space: break-spaces; line-height: 1.5; max-width: 200px; text-align: center; width: 200px;"><span class="edgeLabel"><p>R13: prints briefings / results / list / show output<br />supported by: P7, P23</p></span></div></foreignObject></g></g><g class="edgeLabel" transform="translate(404.796875, 253)"><g class="label" data-id="L_e22_e21_0_0" transform="translate(-153.2109375, -36)"><foreignObject width="306.421875" height="72"><div xmlns="http://www.w3.org/1999/xhtml" class="labelBkg" style="display: table; white-space: break-spaces; line-height: 1.5; max-width: 200px; text-align: center; width: 200px;"><span class="edgeLabel"><p>D5: Finder/Reader/Summarizer/MemoryLister wired by cli</p></span></div></foreignObject></g></g><g class="edgeLabel" transform="translate(404.796875, 319.5)"><g class="label" data-id="L_e23_e21_0_0" transform="translate(-96.8828125, -12)"><foreignObject width="193.765625" height="24"><div xmlns="http://www.w3.org/1999/xhtml" class="labelBkg" style="display: table-cell; white-space: nowrap; line-height: 1.5; max-width: 200px; text-align: center;"><span class="edgeLabel"><p>D6: FileReader wired by cli</p></span></div></foreignObject></g></g><g class="edgeLabel" transform="translate(404.796875, 502)"><g class="label" data-id="L_e24_e21_0_0" transform="translate(-100, -36)"><foreignObject width="200" height="72"><div xmlns="http://www.w3.org/1999/xhtml" class="labelBkg" style="display: table; white-space: break-spaces; line-height: 1.5; max-width: 200px; text-align: center; width: 200px;"><span class="edgeLabel"><p>D7: readDir/readFile/writer wired by cli</p></span></div></foreignObject></g></g><g class="edgeLabel" transform="translate(1082.1328125, 576)"><g class="label" data-id="L_e25_e21_0_0" transform="translate(-225.3046875, -36)"><foreignObject width="450.609375" height="72"><div xmlns="http://www.w3.org/1999/xhtml" class="labelBkg" style="display: table; white-space: break-spaces; line-height: 1.5; max-width: 200px; text-align: center; width: 200px;"><span class="edgeLabel"><p>D4: StatFn/Reader/Walker/Matcher/Settings/DirLister/SkillFinder wired by cli</p></span></div></foreignObject></g></g><g class="edgeLabel" transform="translate(404.796875, 671)"><g class="label" data-id="L_e26_e21_0_0" transform="translate(-100, -24)"><foreignObject width="200" height="48"><div xmlns="http://www.w3.org/1999/xhtml" class="labelBkg" style="display: table; white-space: break-spaces; line-height: 1.5; max-width: 200px; text-align: center; width: 200px;"><span class="edgeLabel"><p>D2: HTTPDoer + token + apiURL wired by cli</p></span></div></foreignObject></g></g><g class="edgeLabel" transform="translate(404.796875, 828)"><g class="label" data-id="L_e27_e21_0_0" transform="translate(-100, -24)"><foreignObject width="200" height="48"><div xmlns="http://www.w3.org/1999/xhtml" class="labelBkg" style="display: table; white-space: break-spaces; line-height: 1.5; max-width: 200px; text-align: center; width: 200px;"><span class="edgeLabel"><p>D1: getenv/execCmd/goos wired by cli</p></span></div></foreignObject></g></g><g class="edgeLabel" transform="translate(404.796875, 906.5)"><g class="label" data-id="L_e28_e21_0_0" transform="translate(-158.953125, -36)"><foreignObject width="317.90625" height="72"><div xmlns="http://www.w3.org/1999/xhtml" class="labelBkg" style="display: table; white-space: break-spaces; line-height: 1.5; max-width: 200px; text-align: center; width: 200px;"><span class="edgeLabel"><p>D3: createTemp/rename/mkdirAll/stat/remove wired by cli (defaults to os.*)</p></span></div></foreignObject></g></g></g></svg>