<svg id="my-svg" width="100%" xmlns="http://www.w3.org/2000/svg" xmlns:xlink="http://www.w3.org/1999/xlink" class="flowchart" style="max-width: 1174.34px; background-color: white;" viewBox="4 4 1174.34375 707.5" role="graphics-document document" aria-roledescription="flowchart-elk"><style>#my-svg{font-family:"trebuchet ms",verdana,arial,sans-serif;font-size:16px;fill:#333;}@keyframes edge-animation-frame{from{stroke-dashoffset:0;}}@keyframes dash{to{stroke-dashoffset:0;}}#my-svg .edge-animation-slow{stroke-dasharray:9,5!important;stroke-dashoffset:900;animation:dash 50s linear infinite;stroke-linecap:round;}#my-svg .edge-animation-fast{stroke-dasharray:9,5!important;stroke-dashoffset:900;animation:dash 20s linear infinite;stroke-linecap:round;}#my-svg .error-icon{fill:#552222;}#my-svg .error-text{fill:#552222;stroke:#552222;}#my-svg .edge-thickness-normal{stroke-width:1px;}#my-svg .edge-thickness-thick{stroke-width:3.5px;}#my-svg .edge-pattern-solid{stroke-dasharray:0;}#my-svg .edge-thickness-invisible{stroke-width:0;fill:none;}#my-svg .edge-pattern-dashed{stroke-dasharray:3;}#my-svg .edge-pattern-dotted{stroke-dasharray:2;}#my-svg .marker{fill:#333333;stroke:#333333;}#my-svg .marker.cross{stroke:#333333;}#my-svg svg{font-family:"trebuchet ms",verdana,arial,sans-serif;font-size:16px;}#my-svg p{margin:0;}#my-svg .label{font-family:"trebuchet ms",verdana,arial,sans-serif;color:#333;}#my-svg .cluster-label text{fill:#333;}#my-svg .cluster-label span{color:#333;}#my-svg .cluster-label span p{background-color:transparent;}#my-svg .label text,#my-svg span{fill:#333;color:#333;}#my-svg .node rect,#my-svg .node circle,#my-svg .node ellipse,#my-svg .node polygon,#my-svg .node path{fill:#ECECFF;stroke:#9370DB;stroke-width:1px;}#my-svg .rough-node .label text,#my-svg .node .label text,#my-svg .image-shape .label,#my-svg .icon-shape .label{text-anchor:middle;}#my-svg .node .katex path{fill:#000;stroke:#000;stroke-width:1px;}#my-svg .rough-node .label,#my-svg .node .label,#my-svg .image-shape .label,#my-svg .icon-shape .label{text-align:center;}#my-svg .node.clickable{cursor:pointer;}#my-svg .root .anchor path{fill:#333333!important;stroke-width:0;stroke:#333333;}#my-svg .arrowheadPath{fill:#333333;}#my-svg .edgePath .path{stroke:#333333;stroke-width:1px;}#my-svg .flowchart-link{stroke:#333333;fill:none;}#my-svg .edgeLabel{background-color:rgba(232,232,232, 0.8);text-align:center;}#my-svg .edgeLabel p{background-color:rgba(232,232,232, 0.8);}#my-svg .edgeLabel rect{opacity:0.5;background-color:rgba(232,232,232, 0.8);fill:rgba(232,232,232, 0.8);}#my-svg .labelBkg{background-color:rgba(232, 232, 232, 0.5);}#my-svg .cluster rect{fill:#ffffde;stroke:#aaaa33;stroke-width:1px;}#my-svg .cluster text{fill:#333;}#my-svg .cluster span{color:#333;}#my-svg div.mermaidTooltip{position:absolute;text-align:center;max-width:200px;padding:2px;font-family:"trebuchet ms",verdana,arial,sans-serif;font-size:12px;background:hsl(80, 100%, 96.2745098039%);border:1px solid #aaaa33;border-radius:2px;pointer-events:none;z-index:100;}#my-svg .flowchartTitleText{text-anchor:middle;font-size:18px;fill:#333;}#my-svg rect.text{fill:none;stroke-width:0;}#my-svg .icon-shape,#my-svg .image-shape{background-color:rgba(232,232,232, 0.8);text-align:center;}#my-svg .icon-shape p,#my-svg .image-shape p{background-color:rgba(232,232,232, 0.8);padding:2px;}#my-svg .icon-shape .label rect,#my-svg .image-shape .label rect{opacity:0.5;background-color:rgba(232,232,232, 0.8);fill:rgba(232,232,232, 0.8);}#my-svg .label-icon{display:inline-block;height:1em;overflow:visible;vertical-align:-0.125em;}#my-svg .node .label-icon path{fill:currentColor;stroke:revert;stroke-width:revert;}#my-svg .node .neo-node{stroke:#9370DB;}#my-svg [data-look="neo"].node rect,#my-svg [data-look="neo"].cluster rect,#my-svg [data-look="neo"].node polygon{stroke:#9370DB;filter:drop-shadow(1px 2px 2px rgba(185, 185, 185, 1));}#my-svg [data-look="neo"].node path{stroke:#9370DB;stroke-width:1px;}#my-svg [data-look="neo"].node .outer-path{filter:drop-shadow(1px 2px 2px rgba(185, 185, 185, 1));}#my-svg [data-look="neo"].node .neo-line path{stroke:#9370DB;filter:none;}#my-svg [data-look="neo"].node circle{stroke:#9370DB;filter:drop-shadow(1px 2px 2px rgba(185, 185, 185, 1));}#my-svg [data-look="neo"].node circle .state-start{fill:#000000;}#my-svg [data-look="neo"].icon-shape .icon{fill:#9370DB;filter:drop-shadow(1px 2px 2px rgba(185, 185, 185, 1));}#my-svg [data-look="neo"].icon-shape .icon-neo path{stroke:#9370DB;filter:drop-shadow(1px 2px 2px rgba(185, 185, 185, 1));}#my-svg :root{--mermaid-font-family:"trebuchet ms",verdana,arial,sans-serif;}#my-svg .person&gt;*{fill:#08427b!important;stroke:#052e56!important;color:#fff!important;}#my-svg .person span{fill:#08427b!important;stroke:#052e56!important;color:#fff!important;}#my-svg .person tspan{fill:#fff!important;}#my-svg .external&gt;*{fill:#999!important;stroke:#666!important;color:#fff!important;}#my-svg .external span{fill:#999!important;stroke:#666!important;color:#fff!important;}#my-svg .external tspan{fill:#fff!important;}#my-svg .container&gt;*{fill:#1168bd!important;stroke:#0b4884!important;color:#fff!important;}#my-svg .container span{fill:#1168bd!important;stroke:#0b4884!important;color:#fff!important;}#my-svg .container tspan{fill:#fff!important;}#my-svg .component&gt;*{fill:#85bbf0!important;stroke:#5d9bd1!important;color:#000!important;}#my-svg .component span{fill:#85bbf0!important;stroke:#5d9bd1!important;color:#000!important;}#my-svg .component tspan{fill:#000!important;}#my-svg .focus&gt;*{fill:#facc15!important;stroke:#a16207!important;color:#000!important;}#my-svg .focus span{fill:#facc15!important;stroke:#a16207!important;color:#000!important;}#my-svg .focus tspan{fill:#000!important;}</style><g><marker id="my-svg_flowchart-elk-pointEnd" class="marker flowchart-elk" viewBox="0 0 10 10" refX="5" refY="5" markerUnits="userSpaceOnUse" markerWidth="8" markerHeight="8" orient="auto"><path d="M 0 0 L 10 5 L 0 10 z" class="arrowMarkerPath" style="stroke-width: 1; stroke-dasharray: 1, 0;"/></marker><marker id="my-svg_flowchart-elk-pointStart" class="marker flowchart-elk" viewBox="0 0 10 10" refX="4.5" refY="5" markerUnits="userSpaceOnUse" markerWidth="8" markerHeight="8" orient="auto"><path d="M 0 5 L 10 10 L 10 0 z" class="arrowMarkerPath" style="stroke-width: 1; stroke-dasharray: 1, 0;"/></marker><marker id="my-svg_flowchart-elk-pointEnd-margin" class="marker flowchart-elk" viewBox="0 0 11.5 14" refX="11.5" refY="7" markerUnits="userSpaceOnUse" markerWidth="10.5" markerHeight="14" orient="auto"><path d="M 0 0 L 11.5 7 L 0 14 z" class="arrowMarkerPath" style="stroke-width: 0; stroke-dasharray: 1, 0;"/></marker><marker id="my-svg_flowchart-elk-pointStart-margin" class="marker flowchart-elk" viewBox="0 0 11.5 14" refX="1" refY="7" markerUnits="userSpaceOnUse" markerWidth="11.5" markerHeight="14" orient="auto"><polygon points="0,7 11.5,14 11.5,0" class="arrowMarkerPath" style="stroke-width: 0; stroke-dasharray: 1, 0;"/></marker><marker id="my-svg_flowchart-elk-circleEnd" class="marker flowchart-elk" viewBox="0 0 10 10" refX="11" refY="5" markerUnits="userSpaceOnUse" markerWidth="11" markerHeight="11" orient="auto"><circle cx="5" cy="5" r="5" class="arrowMarkerPath" style="stroke-width: 1; stroke-dasharray: 1, 0;"/></marker><marker id="my-svg_flowchart-elk-circleStart" class="marker flowchart-elk" viewBox="0 0 10 10" refX="-1" refY="5" markerUnits="userSpaceOnUse" markerWidth="11" markerHeight="11" orient="auto"><circle cx="5" cy="5" r="5" class="arrowMarkerPath" style="stroke-width: 1; stroke-dasharray: 1, 0;"/></marker><marker id="my-svg_flowchart-elk-circleEnd-margin" class="marker flowchart-elk" viewBox="0 0 10 10" refY="5" refX="12.25" markerUnits="userSpaceOnUse" markerWidth="14" markerHeight="14" orient="auto"><circle cx="5" cy="5" r="5" class="arrowMarkerPath" style="stroke-width: 0; stroke-dasharray: 1, 0;"/></marker><marker id="my-svg_flowchart-elk-circleStart-margin" class="marker flowchart-elk" viewBox="0 0 10 10" refX="-2" refY="5" markerUnits="userSpaceOnUse" markerWidth="14" markerHeight="14" orient="auto"><circle cx="5" cy="5" r="5" class="arrowMarkerPath" style="stroke-width: 0; stroke-dasharray: 1, 0;"/></marker><marker id="my-svg_flowchart-elk-crossEnd" class="marker cross flowchart-elk" viewBox="0 0 11 11" refX="12" refY="5.2" markerUnits="userSpaceOnUse" markerWidth="11" markerHeight="11" orient="auto"><path d="M 1,1 l 9,9 M 10,1 l -9,9" class="arrowMarkerPath" style="stroke-width: 2; stroke-dasharray: 1, 0;"/></marker><marker id="my-svg_flowchart-elk-crossStart" class="marker cross flowchart-elk" viewBox="0 0 11 11" refX="-1" refY="5.2" markerUnits="userSpaceOnUse" markerWidth="11" markerHeight="11" orient="auto"><path d="M 1,1 l 9,9 M 10,1 l -9,9" class="arrowMarkerPath" style="stroke-width: 2; stroke-dasharray: 1, 0;"/></marker><marker id="my-svg_flowchart-elk-crossEnd-margin" class="marker cross flowchart-elk" viewBox="0 0 15 15" refX="17.7" refY="7.5" markerUnits="userSpaceOnUse" markerWidth="12" markerHeight="12" orient="auto"><path d="M 1,1 L 14,14 M 1,14 L 14,1" class="arrowMarkerPath" style="stroke-width: 2.5;"/></marker><marker id="my-svg_flowchart-elk-crossStart-margin" class="marker cross flowchart-elk" viewBox="0 0 15 15" refX="-3.5" refY="7.5" markerUnits="userSpaceOnUse" markerWidth="12" markerHeight="12" orient="auto"><path d="M 1,1 L 14,14 M 1,14 L 14,1" class="arrowMarkerPath" style="stroke-width: 2.5; stroke-dasharray: 1, 0;"/></marker></g><defs><filter id="my-svg-drop-shadow" height="130%" width="130%"><feDropShadow dx="4" dy="4" stdDeviation="0" flood-opacity="0.06" flood-color="#000000"/></filter></defs><defs><filter id="my-svg-drop-shadow-small" height="150%" width="150%"><feDropShadow dx="2" dy="2" stdDeviation="0" flood-opacity="0.06" flood-color="#000000"/></filter></defs><g class="subgraphs"/><g class="nodes"><g class="node default focus" id="my-svg-flowchart-e21-0" data-look="classic" transform="translate(609.8828125, 359.5)"><rect class="basic label-container" style="fill:#facc15 !important;stroke:#a16207 !important" x="-59.0390625" y="-27" width="118.078125" height="54"/><g class="label" style="color:#000 !important" transform="translate(-29.0390625, -12)"><rect/><foreignObject width="58.078125" height="24"><div style="color: rgb(0, 0, 0) !important; display: table-cell; white-space: nowrap; line-height: 1.5; max-width: 200px; text-align: center;" xmlns="http://www.w3.org/1999/xhtml"><span style="color:#000 !important" class="nodeLabel"><p>E21 · cli</p></span></div></foreignObject></g></g><g class="node default component" id="my-svg-flowchart-e20-1" data-look="classic" transform="translate(131.6640625, 39)"><rect class="basic label-container" style="fill:#85bbf0 !important;stroke:#5d9bd1 !important" x="-79.1796875" y="-27" width="158.359375" height="54"/><g class="label" style="color:#000 !important" transform="translate(-49.1796875, -12)"><rect/><foreignObject width="98.359375" height="24"><div style="color: rgb(0, 0, 0) !important; display: table-cell; white-space: nowrap; line-height: 1.5; max-width: 200px; text-align: center;" xmlns="http://www.w3.org/1999/xhtml"><span style="color:#000 !important" class="nodeLabel"><p>E20 · main.go</p></span></div></foreignObject></g></g><g class="node default component" id="my-svg-flowchart-e22-2" data-look="classic" transform="translate(140.0546875, 163)"><rect class="basic label-container" style="fill:#85bbf0 !important;stroke:#5d9bd1 !important" x="-70.7890625" y="-27" width="141.578125" height="54"/><g class="label" style="color:#000 !important" transform="translate(-40.7890625, -12)"><rect/><foreignObject width="81.578125" height="24"><div style="color: rgb(0, 0, 0) !important; display: table-cell; white-space: nowrap; line-height: 1.5; max-width: 200px; text-align: center;" xmlns="http://www.w3.org/1999/xhtml"><span style="color:#000 !important" class="nodeLabel"><p>E22 · recall</p></span></div></foreignObject></g></g><g class="node default component" id="my-svg-flowchart-e24-3" data-look="classic" transform="translate(131.4140625, 296)"><rect class="basic label-container" style="fill:#85bbf0 !important;stroke:#5d9bd1 !important" x="-79.4296875" y="-27" width="158.859375" height="54"/><g class="label" style="color:#000 !important" transform="translate(-49.4296875, -12)"><rect/><foreignObject width="98.859375" height="24"><div style="color: rgb(0, 0, 0) !important; display: table-cell; white-space: nowrap; line-height: 1.5; max-width: 200px; text-align: center;" xmlns="http://www.w3.org/1999/xhtml"><span style="color:#000 !important" class="nodeLabel"><p>E24 · memory</p></span></div></foreignObject></g></g><g class="node default component" id="my-svg-flowchart-e25-4" data-look="classic" transform="translate(1063.3828125, 284)"><rect class="basic label-container" style="fill:#85bbf0 !important;stroke:#5d9bd1 !important" x="-106.9609375" y="-27" width="213.921875" height="54"/><g class="label" style="color:#000 !important" transform="translate(-76.9609375, -12)"><rect/><foreignObject width="153.921875" height="24"><div style="color: rgb(0, 0, 0) !important; display: table-cell; white-space: nowrap; line-height: 1.5; max-width: 200px; text-align: center;" xmlns="http://www.w3.org/1999/xhtml"><span style="color:#000 !important" class="nodeLabel"><p>E25 · externalsources</p></span></div></foreignObject></g></g><g class="node default component" id="my-svg-flowchart-e26-5" data-look="classic" transform="translate(126.1875, 405)"><rect class="basic label-container" style="fill:#85bbf0 !important;stroke:#5d9bd1 !important" x="-84.65625" y="-27" width="169.3125" height="54"/><g class="label" style="color:#000 !important" transform="translate(-54.65625, -12)"><rect/><foreignObject width="109.3125" height="24"><div style="color: rgb(0, 0, 0) !important; display: table-cell; white-space: nowrap; line-height: 1.5; max-width: 200px; text-align: center;" xmlns="http://www.w3.org/1999/xhtml"><span style="color:#000 !important" class="nodeLabel"><p>E26 · anthropic</p></span></div></foreignObject></g></g><g class="node default component" id="my-svg-flowchart-e27-6" data-look="classic" transform="translate(111.421875, 514)"><rect class="basic label-container" style="fill:#85bbf0 !important;stroke:#5d9bd1 !important" x="-99.421875" y="-27" width="198.84375" height="54"/><g class="label" style="color:#000 !important" transform="translate(-69.421875, -12)"><rect/><foreignObject width="138.84375" height="24"><div style="color: rgb(0, 0, 0) !important; display: table-cell; white-space: nowrap; line-height: 1.5; max-width: 200px; text-align: center;" xmlns="http://www.w3.org/1999/xhtml"><span style="color:#000 !important" class="nodeLabel"><p>E27 · tokenresolver</p></span></div></foreignObject></g></g><g class="node default component" id="my-svg-flowchart-e28-7" data-look="classic" transform="translate(121.953125, 659)"><rect class="basic label-container" style="fill:#85bbf0 !important;stroke:#5d9bd1 !important" x="-88.890625" y="-27" width="177.78125" height="54"/><g class="label" style="color:#000 !important" transform="translate(-58.890625, -12)"><rect/><foreignObject width="117.78125" height="24"><div style="color: rgb(0, 0, 0) !important; display: table-cell; white-space: nowrap; line-height: 1.5; max-width: 200px; text-align: center;" xmlns="http://www.w3.org/1999/xhtml"><span style="color:#000 !important" class="nodeLabel"><p>E28 · tomlwriter</p></span></div></foreignObject></g></g><g class="node default external" id="my-svg-flowchart-e3-8" data-look="classic" transform="translate(1032.5078125, 373)"><rect class="basic label-container" style="fill:#999 !important;stroke:#666 !important" rx="5" ry="5" x="-76.0859375" y="-27" width="152.171875" height="54"/><g class="label" style="color:#fff !important" transform="translate(-61.0859375, -12)"><rect/><foreignObject width="122.171875" height="24"><div style="color: rgb(255, 255, 255) !important; display: table-cell; white-space: nowrap; line-height: 1.5; max-width: 200px; text-align: center;" xmlns="http://www.w3.org/1999/xhtml"><span style="color:#fff !important" class="nodeLabel"><p>E3 · Claude Code</p></span></div></foreignObject></g></g></g><g class="edges edgePaths"><path d="M210.844,39L263.76,39C316.677,39,422.51,39,475.898,39.362C529.287,39.724,530.229,40.448,531.063,41.281C531.896,42.114,532.62,43.057,532.982,91.529C533.344,140,533.344,236,533.706,284.471C534.068,332.943,534.791,333.886,535.625,334.719C536.458,335.552,537.401,336.276,539.289,336.638C541.177,337,544.01,337,545.427,337L546.844,337" id="my-svg-L_e20_e21_0_0" class="edge-thickness-normal edge-pattern-solid edge-thickness-normal edge-pattern-solid flowchart-link" style=";" data-edge="true" data-et="edge" data-id="L_e20_e21_0_0" data-points="W3sieCI6MjEwLjg0Mzc1LCJ5IjozOX0seyJ4Ijo1MzMuMzQzNzUsInkiOjM5fSx7IngiOjUzMy4zNDM3NSwieSI6MzM3fSx7IngiOjU1MC44NDM3NSwieSI6MzM3fV0=" data-look="classic" marker-end="url(#my-svg_flowchart-elk-pointEnd)"/><path d="M550.844,341.5L545.844,341.5C540.844,341.5,530.844,341.5,525.372,341.138C519.901,340.776,518.958,340.052,518.125,339.219C517.291,338.386,516.568,337.443,516.206,299.305C515.844,261.167,515.844,185.833,515.482,147.695C515.12,109.557,514.396,108.614,513.563,107.781C512.729,106.948,511.787,106.224,465.065,105.862C418.344,105.5,325.844,105.5,279.122,105.862C232.401,106.224,231.458,106.948,230.625,107.781C229.791,108.614,229.068,109.557,228.706,116.445C228.344,123.333,228.344,136.167,227.982,143.055C227.62,149.943,226.896,150.886,226.063,151.719C225.229,152.552,224.287,153.276,222.398,153.638C220.51,154,217.677,154,216.26,154L214.844,154" id="my-svg-L_e21_e22_0_0" class="edge-thickness-normal edge-pattern-solid edge-thickness-normal edge-pattern-solid flowchart-link" style=";" data-edge="true" data-et="edge" data-id="L_e21_e22_0_0" data-points="W3sieCI6NTUwLjg0Mzc1LCJ5IjozNDEuNX0seyJ4Ijo1MTUuODQzNzUsInkiOjM0MS41fSx7IngiOjUxNS44NDM3NSwieSI6MTA1LjV9LHsieCI6MjI4LjM0Mzc1LCJ5IjoxMDUuNX0seyJ4IjoyMjguMzQzNzUsInkiOjE1NH0seyJ4IjoyMTAuODQzNzUsInkiOjE1NH1d" data-look="classic" marker-end="url(#my-svg_flowchart-elk-pointEnd)"/><path d="M550.844,355L537.094,355C523.344,355,495.844,355,481.622,354.638C467.401,354.276,466.458,353.552,465.625,352.719C464.791,351.886,464.068,350.943,463.706,343.805C463.344,336.667,463.344,323.333,462.982,316.195C462.62,309.057,461.896,308.114,461.063,307.281C460.229,306.448,459.287,305.724,418.232,305.362C377.177,305,296.01,305,255.427,305L214.844,305" id="my-svg-L_e21_e24_0_0" class="edge-thickness-normal edge-pattern-solid edge-thickness-normal edge-pattern-solid flowchart-link" style=";" data-edge="true" data-et="edge" data-id="L_e21_e24_0_0" data-points="W3sieCI6NTUwLjg0Mzc1LCJ5IjozNTV9LHsieCI6NDYzLjM0Mzc1LCJ5IjozNTV9LHsieCI6NDYzLjM0Mzc1LCJ5IjozMDV9LHsieCI6MjEwLjg0Mzc1LCJ5IjozMDV9XQ==" data-look="classic" marker-end="url(#my-svg_flowchart-elk-pointEnd)"/><path d="M668.922,359.5L673.922,359.5C678.922,359.5,688.922,359.5,694.393,359.138C699.865,358.776,700.807,358.052,701.641,357.219C702.474,356.386,703.198,355.443,703.56,345.555C703.922,335.667,703.922,316.833,704.284,306.945C704.646,297.057,705.37,296.114,706.203,295.281C707.036,294.448,707.979,293.724,749.034,293.362C790.089,293,871.255,293,911.839,293L952.422,293" id="my-svg-L_e21_e25_0_0" class="edge-thickness-normal edge-pattern-solid edge-thickness-normal edge-pattern-solid flowchart-link" style=";" data-edge="true" data-et="edge" data-id="L_e21_e25_0_0" data-points="W3sieCI6NjY4LjkyMTg3NSwieSI6MzU5LjV9LHsieCI6NzAzLjkyMTg3NSwieSI6MzU5LjV9LHsieCI6NzAzLjkyMTg3NSwieSI6MjkzfSx7IngiOjk1Ni40MjE4NzUsInkiOjI5M31d" data-look="classic" marker-end="url(#my-svg_flowchart-elk-pointEnd)"/><path d="M550.844,359.5L497.927,359.5C445.01,359.5,339.177,359.5,285.789,359.862C232.401,360.224,231.458,360.948,230.625,361.781C229.791,362.614,229.068,363.557,228.706,368.445C228.344,373.333,228.344,382.167,227.982,387.055C227.62,391.943,226.896,392.886,226.063,393.719C225.229,394.552,224.287,395.276,222.398,395.638C220.51,396,217.677,396,216.26,396L214.844,396" id="my-svg-L_e21_e26_0_0" class="edge-thickness-normal edge-pattern-solid edge-thickness-normal edge-pattern-solid flowchart-link" style=";" data-edge="true" data-et="edge" data-id="L_e21_e26_0_0" data-points="W3sieCI6NTUwLjg0Mzc1LCJ5IjozNTkuNX0seyJ4IjoyMjguMzQzNzUsInkiOjM1OS41fSx7IngiOjIyOC4zNDM3NSwieSI6Mzk2fSx7IngiOjIxMC44NDM3NSwieSI6Mzk2fV0=" data-look="classic" marker-end="url(#my-svg_flowchart-elk-pointEnd)"/><path d="M550.844,368.5L540.01,368.5C529.177,368.5,507.51,368.5,496.206,368.862C484.901,369.224,483.958,369.948,483.125,370.781C482.291,371.614,481.568,372.557,481.206,388.029C480.844,403.5,480.844,433.5,480.482,448.971C480.12,464.443,479.396,465.386,478.563,466.219C477.729,467.052,476.787,467.776,435.898,468.138C395.01,468.5,314.177,468.5,273.289,468.862C232.401,469.224,231.458,469.948,230.625,470.781C229.791,471.614,229.068,472.557,228.706,477.445C228.344,482.333,228.344,491.167,227.982,496.055C227.62,500.943,226.896,501.886,226.063,502.719C225.229,503.552,224.287,504.276,222.398,504.638C220.51,505,217.677,505,216.26,505L214.844,505" id="my-svg-L_e21_e27_0_0" class="edge-thickness-normal edge-pattern-solid edge-thickness-normal edge-pattern-solid flowchart-link" style=";" data-edge="true" data-et="edge" data-id="L_e21_e27_0_0" data-points="W3sieCI6NTUwLjg0Mzc1LCJ5IjozNjguNX0seyJ4Ijo0ODAuODQzNzUsInkiOjM2OC41fSx7IngiOjQ4MC44NDM3NSwieSI6NDY4LjV9LHsieCI6MjI4LjM0Mzc1LCJ5Ijo0NjguNX0seyJ4IjoyMjguMzQzNzUsInkiOjUwNX0seyJ4IjoyMTAuODQzNzUsInkiOjUwNX1d" data-look="classic" marker-end="url(#my-svg_flowchart-elk-pointEnd)"/><path d="M550.844,377.5L545.844,377.5C540.844,377.5,530.844,377.5,525.372,377.862C519.901,378.224,518.958,378.948,518.125,379.781C517.291,380.614,516.568,381.557,516.206,415.695C515.844,449.833,515.844,517.167,515.482,551.305C515.12,585.443,514.396,586.386,513.563,587.219C512.729,588.052,511.787,588.776,465.065,589.138C418.344,589.5,325.844,589.5,279.122,589.862C232.401,590.224,231.458,590.948,230.625,591.781C229.791,592.614,229.068,593.557,228.706,602.445C228.344,611.333,228.344,628.167,227.982,637.055C227.62,645.943,226.896,646.886,226.063,647.719C225.229,648.552,224.287,649.276,222.398,649.638C220.51,650,217.677,650,216.26,650L214.844,650" id="my-svg-L_e21_e28_0_0" class="edge-thickness-normal edge-pattern-solid edge-thickness-normal edge-pattern-solid flowchart-link" style=";" data-edge="true" data-et="edge" data-id="L_e21_e28_0_0" data-points="W3sieCI6NTUwLjg0Mzc1LCJ5IjozNzcuNX0seyJ4Ijo1MTUuODQzNzUsInkiOjM3Ny41fSx7IngiOjUxNS44NDM3NSwieSI6NTg5LjV9LHsieCI6MjI4LjM0Mzc1LCJ5Ijo1ODkuNX0seyJ4IjoyMjguMzQzNzUsInkiOjY1MH0seyJ4IjoyMTAuODQzNzUsInkiOjY1MH1d" data-look="classic" marker-end="url(#my-svg_flowchart-elk-pointEnd)"/><path d="M668.922,373L952.422,373" id="my-svg-L_e21_e3_0_0" class="edge-thickness-normal edge-pattern-solid edge-thickness-normal edge-pattern-solid flowchart-link" style=";" data-edge="true" data-et="edge" data-id="L_e21_e3_0_0" data-points="W3sieCI6NjY4LjkyMTg3NSwieSI6MzczfSx7IngiOjk1Ni40MjE4NzUsInkiOjM3M31d" data-look="classic" marker-end="url(#my-svg_flowchart-elk-pointEnd)"/><path d="M210.844,523L257.927,523C305.01,523,399.177,523,446.732,522.638C494.287,522.276,495.229,521.552,496.063,520.719C496.896,519.886,497.62,518.943,497.982,495.138C498.344,471.333,498.344,424.667,498.706,400.862C499.068,377.057,499.791,376.114,500.625,375.281C501.458,374.448,502.401,373.724,510.122,373.362C517.844,373,532.344,373,539.594,373L546.844,373" id="my-svg-L_e27_e21_0_0" class="edge-thickness-normal edge-pattern-dotted edge-thickness-normal edge-pattern-solid flowchart-link" style=";" data-edge="true" data-et="edge" data-id="L_e27_e21_0_0" data-points="W3sieCI6MjEwLjg0Mzc1LCJ5Ijo1MjN9LHsieCI6NDk4LjM0Mzc1LCJ5Ijo1MjN9LHsieCI6NDk4LjM0Mzc1LCJ5IjozNzN9LHsieCI6NTUwLjg0Mzc1LCJ5IjozNzN9XQ==" data-look="classic" marker-end="url(#my-svg_flowchart-elk-pointEnd)"/><path d="M210.844,414L252.094,414C293.344,414,375.844,414,417.565,413.638C459.287,413.276,460.229,412.552,461.063,411.719C461.896,410.886,462.62,409.943,462.982,402.805C463.344,395.667,463.344,382.333,463.706,375.195C464.068,368.057,464.791,367.114,465.625,366.281C466.458,365.448,467.401,364.724,480.956,364.362C494.51,364,520.677,364,533.76,364L546.844,364" id="my-svg-L_e26_e21_0_0" class="edge-thickness-normal edge-pattern-dotted edge-thickness-normal edge-pattern-solid flowchart-link" style=";" data-edge="true" data-et="edge" data-id="L_e26_e21_0_0" data-points="W3sieCI6MjEwLjg0Mzc1LCJ5Ijo0MTR9LHsieCI6NDYzLjM0Mzc1LCJ5Ijo0MTR9LHsieCI6NDYzLjM0Mzc1LCJ5IjozNjR9LHsieCI6NTUwLjg0Mzc1LCJ5IjozNjR9XQ==" data-look="classic" marker-end="url(#my-svg_flowchart-elk-pointEnd)"/><path d="M210.844,668L263.76,668C316.677,668,422.51,668,475.898,667.638C529.287,667.276,530.229,666.552,531.063,665.719C531.896,664.886,532.62,663.943,532.982,617.471C533.344,571,533.344,479,533.706,432.529C534.068,386.057,534.791,385.114,535.625,384.281C536.458,383.448,537.401,382.724,539.289,382.362C541.177,382,544.01,382,545.427,382L546.844,382" id="my-svg-L_e28_e21_0_0" class="edge-thickness-normal edge-pattern-dotted edge-thickness-normal edge-pattern-solid flowchart-link" style=";" data-edge="true" data-et="edge" data-id="L_e28_e21_0_0" data-points="W3sieCI6MjEwLjg0Mzc1LCJ5Ijo2Njh9LHsieCI6NTMzLjM0Mzc1LCJ5Ijo2Njh9LHsieCI6NTMzLjM0Mzc1LCJ5IjozODJ9LHsieCI6NTUwLjg0Mzc1LCJ5IjozODJ9XQ==" data-look="classic" marker-end="url(#my-svg_flowchart-elk-pointEnd)"/><path d="M956.422,275L954.339,275C952.255,275,948.089,275,945.534,274.638C942.979,274.276,942.036,273.552,941.203,272.719C940.37,271.886,939.646,270.943,939.284,262.055C938.922,253.167,938.922,236.333,938.56,227.445C938.198,218.557,937.474,217.614,936.641,216.781C935.807,215.948,934.865,215.224,893.977,214.862C853.089,214.5,772.255,214.5,731.367,214.862C690.479,215.224,689.536,215.948,688.703,216.781C687.87,217.614,687.146,218.557,686.784,239.279C686.422,260,686.422,300.5,686.06,321.221C685.698,341.943,684.974,342.886,684.141,343.719C683.307,344.552,682.365,345.276,680.477,345.638C678.589,346,675.755,346,674.339,346L672.922,346" id="my-svg-L_e25_e21_0_0" class="edge-thickness-normal edge-pattern-dotted edge-thickness-normal edge-pattern-solid flowchart-link" style=";" data-edge="true" data-et="edge" data-id="L_e25_e21_0_0" data-points="W3sieCI6OTU2LjQyMTg3NSwieSI6Mjc1fSx7IngiOjkzOC45MjE4NzUsInkiOjI3NX0seyJ4Ijo5MzguOTIxODc1LCJ5IjoyMTQuNX0seyJ4Ijo2ODYuNDIxODc1LCJ5IjoyMTQuNX0seyJ4Ijo2ODYuNDIxODc1LCJ5IjozNDZ9LHsieCI6NjY4LjkyMTg3NSwieSI6MzQ2fV0=" data-look="classic" marker-end="url(#my-svg_flowchart-elk-pointEnd)"/><path d="M210.844,172L257.927,172C305.01,172,399.177,172,446.732,172.362C494.287,172.724,495.229,173.448,496.063,174.281C496.896,175.114,497.62,176.057,497.982,203.862C498.344,231.667,498.344,286.333,498.706,314.138C499.068,341.943,499.791,342.886,500.625,343.719C501.458,344.552,502.401,345.276,510.122,345.638C517.844,346,532.344,346,539.594,346L546.844,346" id="my-svg-L_e22_e21_0_0" class="edge-thickness-normal edge-pattern-dotted edge-thickness-normal edge-pattern-solid flowchart-link" style=";" data-edge="true" data-et="edge" data-id="L_e22_e21_0_0" data-points="W3sieCI6MjEwLjg0Mzc1LCJ5IjoxNzJ9LHsieCI6NDk4LjM0Mzc1LCJ5IjoxNzJ9LHsieCI6NDk4LjM0Mzc1LCJ5IjozNDZ9LHsieCI6NTUwLjg0Mzc1LCJ5IjozNDZ9XQ==" data-look="classic" marker-end="url(#my-svg_flowchart-elk-pointEnd)"/><path d="M210.844,287L212.927,287C215.01,287,219.177,287,221.732,286.638C224.287,286.276,225.229,285.552,226.063,284.719C226.896,283.886,227.62,282.943,227.982,276.055C228.344,269.167,228.344,256.333,228.706,249.445C229.068,242.557,229.791,241.614,230.625,240.781C231.458,239.948,232.401,239.224,273.289,238.862C314.177,238.5,395.01,238.5,435.898,238.862C476.787,239.224,477.729,239.948,478.563,240.781C479.396,241.614,480.12,242.557,480.482,260.029C480.844,277.5,480.844,311.5,481.206,328.971C481.568,346.443,482.291,347.386,483.125,348.219C483.958,349.052,484.901,349.776,495.539,350.138C506.177,350.5,526.51,350.5,536.677,350.5L546.844,350.5" id="my-svg-L_e24_e21_0_0" class="edge-thickness-normal edge-pattern-dotted edge-thickness-normal edge-pattern-solid flowchart-link" style=";" data-edge="true" data-et="edge" data-id="L_e24_e21_0_0" data-points="W3sieCI6MjEwLjg0Mzc1LCJ5IjoyODd9LHsieCI6MjI4LjM0Mzc1LCJ5IjoyODd9LHsieCI6MjI4LjM0Mzc1LCJ5IjoyMzguNX0seyJ4Ijo0ODAuODQzNzUsInkiOjIzOC41fSx7IngiOjQ4MC44NDM3NSwieSI6MzUwLjV9LHsieCI6NTUwLjg0Mzc1LCJ5IjozNTAuNX1d" data-look="classic" marker-end="url(#my-svg_flowchart-elk-pointEnd)"/></g><g class="edgeLabels"><g class="edgeLabel" transform="translate(345.84375, 38.5)"><g class="label" data-id="L_e20_e21_0_0" transform="translate(-100, -24)"><foreignObject width="200" height="48"><div xmlns="http://www.w3.org/1999/xhtml" class="labelBkg" style="display: table; white-space: break-spaces; line-height: 1.5; max-width: 200px; text-align: center; width: 200px;"><span class="edgeLabel"><p>R2: builds targets, runs targ.Main</p></span></div></foreignObject></g></g><g class="edgeLabel" transform="translate(345.84375, 105)"><g class="label" data-id="L_e21_e22_0_0" transform="translate(-100, -24)"><foreignObject width="200" height="48"><div xmlns="http://www.w3.org/1999/xhtml" class="labelBkg" style="display: table; white-space: break-spaces; line-height: 1.5; max-width: 200px; text-align: center; width: 200px;"><span class="edgeLabel"><p>R3: delegates recall pipeline</p></span></div></foreignObject></g></g><g class="edgeLabel" transform="translate(345.84375, 304.5)"><g class="label" data-id="L_e21_e24_0_0" transform="translate(-100, -24)"><foreignObject width="200" height="48"><div xmlns="http://www.w3.org/1999/xhtml" class="labelBkg" style="display: table; white-space: break-spaces; line-height: 1.5; max-width: 200px; text-align: center; width: 200px;"><span class="edgeLabel"><p>R4: reads/writes memory TOML</p></span></div></foreignObject></g></g><g class="edgeLabel" transform="translate(821.421875, 292.5)"><g class="label" data-id="L_e21_e25_0_0" transform="translate(-100, -24)"><foreignObject width="200" height="48"><div xmlns="http://www.w3.org/1999/xhtml" class="labelBkg" style="display: table; white-space: break-spaces; line-height: 1.5; max-width: 200px; text-align: center; width: 200px;"><span class="edgeLabel"><p>R5: discovers external sources</p></span></div></foreignObject></g></g><g class="edgeLabel" transform="translate(345.84375, 359)"><g class="label" data-id="L_e21_e26_0_0" transform="translate(-94.8359375, -12)"><foreignObject width="189.671875" height="24"><div xmlns="http://www.w3.org/1999/xhtml" class="labelBkg" style="display: table-cell; white-space: nowrap; line-height: 1.5; max-width: 200px; text-align: center;"><span class="edgeLabel"><p>R6: builds Anthropic caller</p></span></div></foreignObject></g></g><g class="edgeLabel" transform="translate(345.84375, 468)"><g class="label" data-id="L_e21_e27_0_0" transform="translate(-79.1015625, -12)"><foreignObject width="158.203125" height="24"><div xmlns="http://www.w3.org/1999/xhtml" class="labelBkg" style="display: table-cell; white-space: nowrap; line-height: 1.5; max-width: 200px; text-align: center;"><span class="edgeLabel"><p>R7: resolves API token</p></span></div></foreignObject></g></g><g class="edgeLabel" transform="translate(345.84375, 589)"><g class="label" data-id="L_e21_e28_0_0" transform="translate(-100, -24)"><foreignObject width="200" height="48"><div xmlns="http://www.w3.org/1999/xhtml" class="labelBkg" style="display: table; white-space: break-spaces; line-height: 1.5; max-width: 200px; text-align: center; width: 200px;"><span class="edgeLabel"><p>R12: writes TOML on learn/update</p></span></div></foreignObject></g></g><g class="edgeLabel" transform="translate(821.421875, 372.5)"><g class="label" data-id="L_e21_e3_0_0" transform="translate(-67.34375, -12)"><foreignObject width="134.6875" height="24"><div xmlns="http://www.w3.org/1999/xhtml" class="labelBkg" style="display: table-cell; white-space: nowrap; line-height: 1.5; max-width: 200px; text-align: center;"><span class="edgeLabel"><p>R13: stdout output</p></span></div></foreignObject></g></g><g class="edgeLabel" transform="translate(345.84375, 522.5)"><g class="label" data-id="L_e27_e21_0_0" transform="translate(-100, -24)"><foreignObject width="200" height="48"><div xmlns="http://www.w3.org/1999/xhtml" class="labelBkg" style="display: table; white-space: break-spaces; line-height: 1.5; max-width: 200px; text-align: center; width: 200px;"><span class="edgeLabel"><p>D1: DI: getenv, execCmd, goos</p></span></div></foreignObject></g></g><g class="edgeLabel" transform="translate(345.84375, 413.5)"><g class="label" data-id="L_e26_e21_0_0" transform="translate(-100, -24)"><foreignObject width="200" height="48"><div xmlns="http://www.w3.org/1999/xhtml" class="labelBkg" style="display: table; white-space: break-spaces; line-height: 1.5; max-width: 200px; text-align: center; width: 200px;"><span class="edgeLabel"><p>D2: DI: HTTPDoer, token, apiURL</p></span></div></foreignObject></g></g><g class="edgeLabel" transform="translate(345.84375, 667.5)"><g class="label" data-id="L_e28_e21_0_0" transform="translate(-100, -36)"><foreignObject width="200" height="72"><div xmlns="http://www.w3.org/1999/xhtml" class="labelBkg" style="display: table; white-space: break-spaces; line-height: 1.5; max-width: 200px; text-align: center; width: 200px;"><span class="edgeLabel"><p>D3: DI: createTemp, rename, mkdirAll, stat, remove</p></span></div></foreignObject></g></g><g class="edgeLabel" transform="translate(821.421875, 214)"><g class="label" data-id="L_e25_e21_0_0" transform="translate(-100, -36)"><foreignObject width="200" height="72"><div xmlns="http://www.w3.org/1999/xhtml" class="labelBkg" style="display: table; white-space: break-spaces; line-height: 1.5; max-width: 200px; text-align: center; width: 200px;"><span class="edgeLabel"><p>D4: DI: StatFn, Reader, Walker, Matcher, Settings, DirLister, SkillFinder</p></span></div></foreignObject></g></g><g class="edgeLabel" transform="translate(345.84375, 171.5)"><g class="label" data-id="L_e22_e21_0_0" transform="translate(-100, -24)"><foreignObject width="200" height="48"><div xmlns="http://www.w3.org/1999/xhtml" class="labelBkg" style="display: table; white-space: break-spaces; line-height: 1.5; max-width: 200px; text-align: center; width: 200px;"><span class="edgeLabel"><p>D5: DI: Finder, Reader, Summarizer, MemoryLister</p></span></div></foreignObject></g></g><g class="edgeLabel" transform="translate(345.84375, 238)"><g class="label" data-id="L_e24_e21_0_0" transform="translate(-100, -24)"><foreignObject width="200" height="48"><div xmlns="http://www.w3.org/1999/xhtml" class="labelBkg" style="display: table; white-space: break-spaces; line-height: 1.5; max-width: 200px; text-align: center; width: 200px;"><span class="edgeLabel"><p>D7: DI: readDir, readFile, writer</p></span></div></foreignObject></g></g></g></svg>